<svg width="20" height="20" viewBox="0 0 20 20" fill="none" xmlns="http://www.w3.org/2000/svg">
<path fill-rule="evenodd" clip-rule="evenodd" d="M4.10983 4.10886L4 4.21872V9.96006C4 14.0791 4.01308 15.7301 4.04625 15.803C4.07171 15.8588 4.13821 15.9253 4.19404 15.9507C4.33829 16.0164 15.6617 16.0164 15.806 15.9507C16.0208 15.8528 16.0562 15.5885 15.8782 15.4105L15.7564 15.2888H10.2324H4.70833V9.76567V4.24259L4.58654 4.12082C4.42967 3.96397 4.25908 3.95968 4.10983 4.10886ZM10.8793 4.81333C10.5175 4.89181 9.98792 5.1631 9.69963 5.41764C9.42354 5.66143 9.08663 6.14455 8.96375 6.47291C8.68875 7.2077 8.77083 8.09888 9.17658 8.78484C9.48521 9.30655 10.0943 9.7748 10.7083 9.96239C11.3241 10.1506 12.1756 10.0662 12.6949 9.76551C13.0483 9.56092 13.0198 9.54275 14.2172 10.7368L15.2923 11.8087L15.5725 11.5286L15.8527 11.2485L14.7805 10.1736C13.5719 8.96186 13.6137 9.03126 13.829 8.59629C14.1004 8.04768 14.1799 7.48211 14.0652 6.91621C13.7653 5.43626 12.3412 4.4963 10.8793 4.81333ZM11.7736 5.58598C12.7404 5.76412 13.4273 6.706 13.2913 7.66741C13.1947 8.35117 12.6517 8.98831 12.0009 9.18153C11.686 9.27501 11.1553 9.26839 10.8614 9.16732C10.226 8.94873 9.73267 8.35971 9.62604 7.69237C9.45383 6.61468 10.3067 5.59361 11.4194 5.54511C11.4782 5.54253 11.6376 5.56095 11.7736 5.58598ZM15.3958 6.40747L14.8125 6.89909L14.8252 7.164C14.8447 7.57272 14.7617 8.12533 14.6208 8.52443L14.4929 8.88666L15.2465 9.64007L16 10.3935V8.15445C16 6.92296 15.9953 5.91551 15.9896 5.91563C15.9839 5.91576 15.7167 6.1371 15.3958 6.40747ZM11.1002 6.32477C10.6219 6.49008 10.3127 6.91017 10.313 7.39429C10.3132 7.63921 10.4346 8.05693 10.4982 8.03164C10.5155 8.02481 10.7636 7.74736 11.0495 7.41512C11.3355 7.08289 11.6025 6.78373 11.6431 6.75036C11.6862 6.71487 11.8488 6.68029 12.0348 6.66705L12.3527 6.64442L12.1663 6.50766C11.9662 6.36089 11.6476 6.24783 11.4403 6.25003C11.37 6.25078 11.217 6.2844 11.1002 6.32477ZM11.5409 7.91595C11.2043 8.30793 11.0847 8.47465 11.1171 8.50706C11.142 8.53189 11.2903 8.55218 11.4467 8.55218C11.8123 8.55218 12.044 8.45044 12.2962 8.17937C12.4933 7.9674 12.573 7.79572 12.5928 7.5401L12.6042 7.39429L12.307 7.38217L12.0097 7.37001L11.5409 7.91595ZM6.17562 9.0528L5.41667 9.81567V12.1981V14.5805H6.1875H6.95833V11.4353C6.95833 9.70535 6.953 8.28997 6.94646 8.28997C6.93992 8.28997 6.59304 8.63325 6.17562 9.0528ZM7.66708 11.4248L7.66667 14.5805H8.4375H9.20833V12.269V9.95756L8.94792 9.63482C8.80471 9.45731 8.458 9.07742 8.1775 8.79059L7.66754 8.26914L7.66708 11.4248ZM9.91667 12.4976V14.5805H10.7083H11.5V12.6884V10.7962L11.2188 10.7686C10.8483 10.7324 10.4485 10.6348 10.1719 10.5131C10.0488 10.4589 9.94092 10.4146 9.93233 10.4146C9.92371 10.4146 9.91667 11.3519 9.91667 12.4976ZM12.7917 10.4953C12.7573 10.5155 12.6026 10.5727 12.4479 10.6227L12.1667 10.7134V12.647V14.5805H12.9583H13.75V12.9238V11.267L13.343 10.8617C13.1192 10.6387 12.9176 10.4568 12.8951 10.4575C12.8726 10.4582 12.826 10.4753 12.7917 10.4953ZM14.4583 13.2796V14.5805H15.2292H16V13.3425V12.1044L15.7604 12.3379C15.3262 12.7611 15.2461 12.7578 14.7813 12.2981L14.4583 11.9788V13.2796Z" fill="#CAD9E4"/>
<path fill-rule="evenodd" clip-rule="evenodd" d="M9.23443 0.0273944C4.78093 0.348779 1.07263 3.63207 0.156374 8.06503C-0.0113056 8.87612 -0.0524097 10.5224 0.0735934 11.3772C0.324569 13.0795 0.951493 14.614 1.94492 15.9576C2.43038 16.6141 3.50768 17.6716 4.1713 18.143C4.8225 18.6056 6.11018 19.2525 6.86196 19.4947C8.95283 20.1684 11.0684 20.1684 13.1593 19.4947C13.909 19.2532 15.2025 18.6042 15.8213 18.1594C17.9402 16.6358 19.3502 14.4498 19.8707 11.8817C19.9806 11.3397 19.9997 11.064 20 10.0177C20.0005 8.58289 19.9249 8.06726 19.5438 6.90492C18.0956 2.48784 13.9024 -0.309468 9.23443 0.0273944ZM10.9266 0.537714C12.0517 0.654 13.1235 0.951339 14.1267 1.42545C15.861 2.24504 17.474 3.78006 18.4144 5.50561C19.2528 7.04416 19.6578 8.95254 19.5149 10.6921C19.2349 14.1007 17.2914 16.9875 14.2574 18.5015C9.94105 20.6554 4.6602 19.22 2.01116 15.1728C0.134906 12.3063 -0.0249308 8.49048 1.60618 5.50561C2.31491 4.20865 3.49972 2.90689 4.68659 2.12105C6.57881 0.868237 8.76294 0.314053 10.9266 0.537714Z" fill="#CAD9E4"/>
</svg>
