<svg width="34" height="34" viewBox="0 0 34 34" fill="none" xmlns="http://www.w3.org/2000/svg">
<path fill-rule="evenodd" clip-rule="evenodd" d="M13.8715 6.91242C13.8715 6.92587 13.9079 6.91242 13.9079 6.91242C16.6102 6.91404 13.9781 6.90397 13.8715 6.91242C12.1449 7.04955 10.5534 8.0327 9.67205 9.50671C9.38361 9.98907 9.26706 10.2841 9.1074 10.9362C8.84829 11.9942 8.79525 12.071 8.25908 12.164C7.37408 12.3174 6.73847 12.5778 6.11766 13.0411C5.89382 13.2082 5.52344 13.566 5.35589 13.777C4.63993 14.6787 4.25431 15.8694 4.25011 17.1912C4.24898 17.5429 4.25627 17.649 4.29735 17.8806C4.49844 19.0134 5.09586 20.1256 5.93841 20.9357C6.75935 21.7251 7.7017 22.2286 8.92236 22.53C9.16614 22.5902 9.42057 22.6337 9.43649 22.6179C9.44898 22.6055 9.41698 22.125 9.37151 21.6418C9.35576 21.4745 9.33737 21.2464 9.33065 21.1349C9.30943 20.7833 9.31004 20.7852 9.21165 20.7693C8.77429 20.6985 8.29183 20.5431 7.86111 20.3343C6.58959 19.7179 5.91049 18.5219 5.99441 17.0467C6.03135 16.3973 6.14466 15.9123 6.37067 15.436C6.52255 15.1159 6.68686 14.8806 6.92231 14.646C7.31812 14.2516 7.77833 14.0179 8.37953 13.9061C8.49849 13.8839 8.68766 13.8466 8.79991 13.8231C9.51923 13.6727 10.1189 13.2066 10.4233 12.5613C10.5618 12.2675 10.6559 11.9678 10.7999 11.3619C10.8952 10.9608 10.9386 10.8325 11.0579 10.5996C11.6634 9.41833 12.9208 8.65343 14.2592 8.65217C14.9773 8.65148 15.7887 8.847 16.3175 9.14811C16.8133 9.43043 17.1488 9.78723 17.36 10.2569C17.492 10.5505 17.6977 10.9312 17.824 11.1154C18.3437 11.8737 19.2699 12.2448 20.3126 12.1125L20.5961 12.0765L20.7798 12.1214C21.3799 12.2682 21.8025 12.449 22.1182 12.6939C22.4097 12.9201 22.5615 13.0229 22.7186 13.1005C23.0681 13.2729 23.3196 13.3161 24.1064 13.3391C24.7069 13.3567 24.777 13.3651 25.0962 13.4589C25.4144 13.5525 25.6532 13.6531 25.9546 13.8208C26.7614 14.2697 27.1426 14.6258 27.3988 15.1701L27.4734 15.3286L28.0757 15.3166C28.933 15.2996 29.2187 15.2852 29.2187 15.2593C29.2187 15.2196 29.0297 14.8131 28.9056 14.5858C28.5868 14.0019 28.282 13.5896 27.8208 13.1185C27.5192 12.8104 27.3262 12.6494 27.0044 12.4374C26.544 12.134 25.999 11.9087 25.2901 11.7287C24.9445 11.641 24.8275 11.6302 24.188 11.6274L23.5758 11.6246L23.4723 11.572C23.4154 11.5431 23.2593 11.4377 23.1254 11.3379C22.6033 10.9489 22.1682 10.7325 21.4635 10.5112C21.0826 10.3916 20.9388 10.3769 20.2989 10.392C19.7508 10.4048 19.7285 10.4039 19.5931 10.3603C19.5162 10.3355 19.4165 10.2903 19.3716 10.2598C19.2828 10.1995 19.251 10.1431 18.9552 9.52285C18.715 9.01908 18.5175 8.73064 18.1688 8.37423C17.7575 7.95383 17.3671 7.68331 16.796 7.42287C16.2035 7.15273 15.4014 6.9647 14.6176 6.9122C14.4934 6.90391 14.2592 6.9225 13.8715 6.91242C14.6176 6.9122 14.6176 6.92569 14.6176 6.9122C13.9079 6.91242 14.6176 6.8987 14.6176 6.9122C13.9079 6.93206 13.8715 6.89892 13.8715 6.91242ZM12.9225 16.6259C12.5369 16.662 12.0914 16.783 11.7369 16.9479C10.834 17.3678 10.2398 18.1442 10.0066 19.2088C9.81452 20.0855 9.91585 21.0913 10.267 21.7938C10.6735 22.6072 11.4233 23.1464 12.4082 23.3335C12.6045 23.3708 12.705 23.3753 13.3266 23.375C14.0754 23.3746 14.2843 23.3555 14.6929 23.25L14.8715 23.2039V22.6915C14.8715 22.4097 14.8642 22.1791 14.8553 22.1791C14.8464 22.1791 14.7601 22.2018 14.6636 22.2296C14.2733 22.342 13.6212 22.4157 13.2184 22.3928C12.9526 22.3777 12.5917 22.3047 12.3992 22.2271C11.7965 21.9841 11.4165 21.5226 11.2491 20.8301C11.0863 20.1567 11.1492 19.3859 11.4133 18.8172C11.6671 18.2706 12.133 17.8756 12.7184 17.7108C13.2712 17.5551 13.9855 17.5976 14.7953 17.8344C14.8292 17.8443 14.831 17.8144 14.8259 17.3337L14.8205 16.8225L14.7388 16.794C14.6939 16.7783 14.5286 16.7387 14.3715 16.7061C13.9217 16.6125 13.3836 16.5827 12.9225 16.6259ZM16.1214 20.0045L16.1266 23.2841L16.7234 23.2895L17.3202 23.2949L17.3255 22.0222L17.3307 20.7496L17.742 20.7442L18.1532 20.7387L18.3302 20.9875C18.4276 21.1243 18.6169 21.3914 18.7509 21.5809C18.8849 21.7705 19.0915 22.0625 19.21 22.2298C19.3286 22.397 19.5354 22.689 19.6696 22.8786C19.8039 23.0682 19.9271 23.2393 19.9435 23.2588C19.9708 23.2913 20.0317 23.2942 20.6775 23.2942C21.1619 23.2942 21.3818 23.2875 21.3818 23.2727C21.3818 23.2543 21.0526 22.7945 20.5552 22.1183C20.4076 21.9177 19.6062 20.8152 19.505 20.6736C19.4671 20.6207 19.44 20.5741 19.4447 20.5702C19.4494 20.5663 19.5359 20.5337 19.6369 20.4978C20.0335 20.357 20.3002 20.1929 20.535 19.945C20.8438 19.6188 20.9694 19.2992 20.9884 18.7903C21.0094 18.2264 20.9086 17.8789 20.6202 17.5213C20.2562 17.0699 19.6678 16.8233 18.7695 16.7456C18.6404 16.7344 17.9907 16.7252 17.3256 16.7251L16.1163 16.7249L16.1214 20.0045ZM22.4685 20.0045L22.4737 23.2841L23.0724 23.2895L23.6712 23.2949L23.6587 20.9983C23.6519 19.7352 23.6413 18.6037 23.6353 18.4838C23.6227 18.2373 23.6459 18.1998 23.6978 18.3824C23.7853 18.69 24.0294 19.4058 24.2391 19.969C24.2744 20.0638 24.3537 20.2782 24.4153 20.4455C24.6343 21.0399 24.791 21.4651 24.9534 21.9054C25.0439 22.1507 25.1814 22.5248 25.2589 22.7367C25.3364 22.9485 25.4156 23.1607 25.4348 23.2081L25.4697 23.2942L25.8391 23.2939C26.0423 23.2938 26.2185 23.2869 26.2307 23.2787C26.243 23.2705 26.2676 23.2228 26.2856 23.1726C26.3035 23.1224 26.3927 22.8806 26.484 22.6353C26.5752 22.3899 26.7083 22.0295 26.7799 21.8344C26.8515 21.6392 26.9893 21.2651 27.0862 21.0031C27.1831 20.741 27.3024 20.4171 27.3513 20.2833C27.4002 20.1495 27.4694 19.9624 27.505 19.8676C27.6179 19.5678 27.8835 18.7929 27.9655 18.5242C28.009 18.382 28.0539 18.2689 28.0653 18.2728C28.0767 18.2768 28.0849 18.302 28.0835 18.3287C28.0401 19.1637 28.0327 19.6638 28.0386 21.368L28.0453 23.2841L28.632 23.2895L29.2187 23.2949V20.0099V16.7249L28.3769 16.7252L27.535 16.7255L27.2901 17.4046C27.1554 17.7781 27.0261 18.1361 27.0027 18.2001C26.437 19.747 26.1062 20.6988 25.9315 21.2819C25.8939 21.4073 25.8561 21.51 25.8476 21.51C25.8391 21.51 25.8125 21.4438 25.7886 21.363C25.5514 20.5602 25.4639 20.3081 24.6472 18.0732C24.5005 17.6718 24.3357 17.2201 24.281 17.0696C24.2263 16.919 24.1752 16.7799 24.1673 16.7604C24.154 16.7274 24.0938 16.7249 23.3082 16.7249H22.4634L22.4685 20.0045ZM19.0246 17.7964C19.3835 17.8944 19.5595 18.0207 19.6743 18.2628C19.7317 18.3839 19.739 18.4209 19.7459 18.6265C19.7503 18.7566 19.7437 18.8945 19.7306 18.946C19.6299 19.3434 19.322 19.5828 18.7939 19.6744C18.5345 19.7194 18.0309 19.7494 17.6573 19.7422L17.3307 19.7358L17.3254 18.7356L17.3201 17.7353L18.0908 17.7436C18.8067 17.7513 18.873 17.755 19.0246 17.7964Z" fill="#CADAE4"/>
<path fill-rule="evenodd" clip-rule="evenodd" d="M15.6985 0.0465704C8.12759 0.592924 1.82347 6.17453 0.265836 13.7106C-0.0192195 15.0894 -0.0890964 17.8882 0.125109 19.3413C0.551767 22.2351 1.61754 24.8438 3.30636 27.1279C4.13165 28.244 5.96305 30.0417 7.09121 30.8432C8.19824 31.6295 10.3873 32.7292 11.6653 33.141C15.2198 34.2863 18.8162 34.2863 22.3707 33.141C23.6453 32.7304 25.8443 31.6272 26.8962 30.8709C30.4983 28.2808 32.8954 24.5647 33.7802 20.1988C33.967 19.2775 33.9995 18.8088 34 17.03C34.0008 14.5909 33.8723 13.7143 33.2244 11.7384C30.7626 4.22932 23.6342 -0.526096 15.6985 0.0465704ZM18.5752 0.914114C20.4879 1.1118 22.31 1.61728 24.0154 2.42326C26.9636 3.81657 29.7058 6.4261 31.3045 9.35953C32.7298 11.9751 33.4182 15.2193 33.1753 18.1765C32.6993 23.9712 29.3954 28.8788 24.2376 31.4526C16.8998 35.1143 7.92233 32.6741 3.41896 25.7937C0.229341 20.9206 -0.0423824 14.4338 2.73051 9.35953C3.93535 7.1547 5.94953 4.94171 7.9672 3.60578C11.184 1.476 14.897 0.53389 18.5752 0.914114Z" fill="#CADAE4"/>
</svg>
