<svg width="34" height="34" viewBox="0 0 34 34" fill="none" xmlns="http://www.w3.org/2000/svg">
<path fill-rule="evenodd" clip-rule="evenodd" d="M15.6985 0.0465704C8.12759 0.592924 1.82347 6.17453 0.265836 13.7106C-0.0192195 15.0894 -0.0890964 17.8882 0.125109 19.3413C0.551767 22.2351 1.61754 24.8438 3.30636 27.1279C4.13165 28.244 5.96305 30.0417 7.09121 30.8432C8.19824 31.6295 10.3873 32.7292 11.6653 33.141C15.2198 34.2863 18.8162 34.2863 22.3707 33.141C23.6453 32.7304 25.8443 31.6272 26.8962 30.8709C30.4983 28.2808 32.8954 24.5647 33.7802 20.1988C33.967 19.2775 33.9995 18.8088 34 17.03C34.0008 14.5909 33.8723 13.7143 33.2244 11.7384C30.7626 4.22932 23.6342 -0.526096 15.6985 0.0465704ZM18.5752 0.914114C20.4879 1.1118 22.31 1.61728 24.0154 2.42326C26.9636 3.81657 29.7058 6.4261 31.3045 9.35953C32.7298 11.9751 33.4182 15.2193 33.1753 18.1765C32.6993 23.9712 29.3954 28.8788 24.2376 31.4526C16.8998 35.1143 7.92233 32.6741 3.41896 25.7937C0.229341 20.9206 -0.0423824 14.4338 2.73051 9.35953C3.93535 7.1547 5.94953 4.94171 7.9672 3.60578C11.184 1.476 14.897 0.53389 18.5752 0.914114Z" fill="#CAD9E4"/>
<path fill-rule="evenodd" clip-rule="evenodd" d="M8.44443 7.07221C7.76399 7.25528 7.24365 7.78199 7.06493 8.46862C7.00783 8.68797 7 9.58962 7 15.9535C7 21.1528 7.01343 23.2522 7.04765 23.4136C7.18999 24.0843 7.70258 24.6459 8.35913 24.8503C8.60384 24.9266 8.80442 24.9306 12.3109 24.9306H16.005L15.8888 24.581C15.6934 23.9933 15.6234 23.5638 15.6209 22.9389C15.6197 22.6243 15.6331 22.2619 15.6508 22.1337C15.6743 21.9632 15.6708 21.9205 15.6381 21.9748C15.5306 22.153 15.3919 22.1761 14.4328 22.1761C13.1849 22.1761 13.1834 22.1753 13.1834 21.4341C13.1834 20.9921 13.1859 20.9806 13.3072 20.8592L13.431 20.7353H14.4202C15.5183 20.7353 15.5519 20.7428 15.6655 21.0149C15.698 21.0927 15.7265 21.2762 15.7288 21.4226C15.7326 21.6597 15.7369 21.6726 15.7685 21.5405C15.9055 20.9663 16.2735 20.1549 16.7175 19.4483L16.9866 19.0201L16.8956 18.8924C16.8176 18.7831 16.8046 18.7063 16.8046 18.3582C16.8046 17.6986 16.9125 17.5994 17.6307 17.5994C18.0517 17.5994 18.0653 17.5964 18.1537 17.4831C18.2037 17.4191 18.4494 17.1318 18.6997 16.8447L19.1548 16.3226L18.9977 16.1347L18.8407 15.9467H17.966C17.1489 15.9467 17.084 15.941 16.9811 15.86C16.8499 15.7567 16.7838 15.5445 16.7838 15.2263C16.7838 14.875 16.8508 14.6847 17.0083 14.5886C17.1302 14.5142 17.2262 14.5062 17.9939 14.506L18.8443 14.5059L18.9032 14.3958C18.9356 14.3353 19.0705 14.1853 19.203 14.0626L19.444 13.8394L19.1284 13.5264C18.7951 13.1957 18.6245 12.9113 18.5709 12.597L18.5387 12.4082L13.9562 12.387L9.37363 12.3658L9.25623 12.2484L9.13879 12.131L9.12604 11.1381C9.11516 10.2893 9.12325 10.1259 9.18178 10.0126C9.18793 10.0007 9.19329 9.98938 9.19839 9.97857C9.20757 9.95913 9.21593 9.94141 9.22666 9.92527C9.33703 9.75912 9.6976 9.75917 13.7683 9.75974C13.9889 9.75977 14.2203 9.7598 14.4632 9.75981C19.3107 9.75994 19.3902 9.76129 19.5268 9.84456C19.7038 9.95258 19.748 10.0738 19.748 10.451L19.748 10.7555H20.0762C20.2568 10.7555 20.4717 10.7711 20.5539 10.7902C20.6968 10.8235 20.7073 10.8178 20.7967 10.6585C20.9761 10.3391 21.5356 9.93093 21.7957 9.92957C21.8694 9.92919 21.8732 9.88622 21.8593 9.19814L21.8445 8.46714L21.6871 8.13744C21.4225 7.58298 20.9871 7.22231 20.3963 7.06836C20.0374 6.97479 8.79294 6.97843 8.44443 7.07221ZM21.8322 10.6156C21.6208 10.6872 21.3776 10.9482 21.2975 11.1894C21.1604 11.6027 20.934 11.6967 20.5078 11.5172C20.2835 11.4227 20.1951 11.4068 20.0048 11.4265C19.5523 11.4732 19.2255 11.8392 19.2259 12.2987C19.2262 12.6218 19.3069 12.7589 19.7829 13.2452L20.1874 13.6583H22.1409H24.0945L24.499 13.2452C24.7214 13.0179 24.9323 12.7748 24.9677 12.7048C25.2645 12.1172 24.8482 11.4165 24.2003 11.4133C24.0898 11.4127 23.9153 11.4571 23.7679 11.5233C23.5822 11.6067 23.4841 11.6274 23.3734 11.6066C23.2153 11.5769 23.0092 11.3739 23.0092 11.2479C23.0092 11.1229 22.773 10.7947 22.6109 10.6944C22.4306 10.5829 22.0442 10.5438 21.8322 10.6156ZM19.9386 14.3926C19.7011 14.4855 19.6155 14.554 19.4911 14.7503C19.3882 14.9126 19.3669 14.9912 19.3669 15.2086C19.3669 15.4347 19.3859 15.4991 19.5045 15.6741C19.584 15.7914 19.7137 15.9143 19.8116 15.9649C19.9764 16.0503 20.0393 16.0526 22.1691 16.0526H24.3572L24.5405 15.9237C24.7957 15.7443 24.9135 15.5206 24.9143 15.214C24.9155 14.8096 24.7039 14.511 24.3264 14.3846C24.1214 14.3159 20.1158 14.3232 19.9386 14.3926ZM11.8042 14.5472C11.864 14.5699 11.9518 14.651 11.9995 14.7273C12.0742 14.8469 12.0844 14.9229 12.0736 15.2766C12.0618 15.6651 12.0545 15.694 11.9367 15.8169L11.8123 15.9467H10.8005H9.78873L9.66493 15.8228C9.54457 15.7024 9.54114 15.6872 9.54114 15.2739C9.54114 14.5159 9.55312 14.5085 10.7772 14.507C11.2823 14.5064 11.7445 14.5245 11.8042 14.5472ZM15.4996 14.5886C15.5904 14.6439 15.6494 14.7238 15.6794 14.8321C15.7426 15.0598 15.7353 15.5 15.6655 15.667C15.5519 15.9391 15.5183 15.9467 14.4202 15.9467H13.431L13.3072 15.8228C13.1855 15.701 13.1834 15.6913 13.1844 15.2401C13.1859 14.5124 13.192 14.5088 14.4328 14.5073C15.2823 14.5063 15.3765 14.5135 15.4996 14.5886ZM19.355 17.1271C18.7314 17.8437 18.5591 18.0531 18.13 18.6164C17.2918 19.7166 16.7654 20.6188 16.5267 21.3646C16.1343 22.5901 16.2115 23.7734 16.7579 24.9094C17.3827 26.2084 18.5621 27.2075 20.0596 27.7065C20.7631 27.9409 21.1784 27.9995 22.1409 28C23.1027 28.0005 23.49 27.9462 24.2288 27.7073C25.0826 27.431 25.7889 27.0089 26.4387 26.3864C27.9199 24.9674 28.3732 23.069 27.6869 21.1591C27.3366 20.1844 26.4207 18.8392 24.984 17.1891C24.5367 16.6754 24.5338 16.673 24.3968 16.7124C24.2225 16.7624 20.1218 16.7629 19.9067 16.7129L19.7476 16.6759L19.355 17.1271ZM11.8099 17.6614C12.0074 17.744 12.0823 17.9309 12.0823 18.341C12.0823 18.755 12.0078 18.9378 11.8044 19.0228C11.6792 19.0752 11.4777 19.0847 10.7194 19.0742L9.78814 19.0614L9.66464 18.923C9.54508 18.789 9.54114 18.7707 9.54114 18.346C9.54114 17.9622 9.55245 17.8931 9.63169 17.7923C9.68149 17.7289 9.76251 17.6608 9.81168 17.6409C9.8609 17.621 10.2972 17.6035 10.7813 17.6021C11.463 17.6 11.6949 17.6134 11.8099 17.6614ZM15.4473 17.6649C15.6536 17.7628 15.7034 17.8944 15.7034 18.341C15.7034 19.0625 15.6497 19.092 14.3651 19.0743L13.4304 19.0614L13.3069 18.923C13.1874 18.789 13.1834 18.7707 13.1834 18.346C13.1834 17.9622 13.1947 17.8931 13.274 17.7923C13.3238 17.7289 13.4048 17.6608 13.454 17.6409C13.5032 17.621 13.9408 17.6035 14.4264 17.6021C15.1392 17.5999 15.336 17.612 15.4473 17.6649ZM11.9367 20.8651C12.0545 20.988 12.0618 21.0169 12.0736 21.4054C12.0844 21.7591 12.0742 21.8351 11.9995 21.9547C11.9518 22.031 11.864 22.1121 11.8042 22.1348C11.7445 22.1575 11.2861 22.1761 10.7857 22.1761C9.55537 22.1761 9.54114 22.1673 9.54114 21.4081C9.54114 20.9948 9.54457 20.9796 9.66493 20.8592L9.78873 20.7353H10.8005H11.8123L11.9367 20.8651ZM20.874 24.7746V26H21.6849V24.7746H23.1715V24.189H21.6849V23.3871H22.1534H22.4417C22.9763 23.3871 23.4238 23.309 23.7842 23.1528C24.1506 22.9967 24.4269 22.7744 24.6131 22.4861C24.7993 22.1918 24.8924 21.8404 24.8924 21.4319C24.8924 20.8253 24.7002 20.3627 24.3158 20.0444C23.9374 19.726 23.3547 19.5669 22.5679 19.5669H20.874V22.7023H20.0901V23.3871H20.874V24.189H20.0901V24.7746H20.874ZM21.6849 22.7023H22.1534H22.3246C22.691 22.7023 23.0003 22.6633 23.2526 22.5852C23.5109 22.5071 23.7091 22.378 23.8473 22.1978C23.9854 22.0176 24.0545 21.7713 24.0545 21.459C24.0545 21.0505 23.9284 20.7472 23.6761 20.549C23.4238 20.3507 23.0304 20.2516 22.4958 20.2516H21.6849V22.7023Z" fill="#CAD9E4"/>
</svg>
