<svg width="34" height="34" viewBox="0 0 34 34" fill="none" xmlns="http://www.w3.org/2000/svg">
<path fill-rule="evenodd" clip-rule="evenodd" d="M8.16922 8.09061C7.37345 8.36117 6.8468 8.75492 6.42 9.39836C5.91421 10.1609 5.84375 10.5647 5.84375 12.6997V14.5889H7.16462H8.48556L8.46301 13.9366L8.44053 13.2844L7.80102 13.2614L7.16152 13.2384L7.16198 12.115C7.16245 10.8362 7.22182 10.5393 7.57212 10.0644C8.29115 9.0896 9.76729 9.04058 10.5631 9.9651C10.9926 10.464 11.0373 10.6576 11.0373 12.0168V13.2448H10.4172H9.79705V13.9169V14.5889H10.4172H11.0373V15.0669C11.0373 15.469 11.0071 15.5758 10.847 15.7389C10.6631 15.9267 10.6207 15.9331 9.56799 15.9331H8.47928V16.6051V17.2772L9.58388 17.2767C10.1915 17.2765 10.8184 17.2395 10.9772 17.1945C11.4351 17.0648 11.9042 16.6532 12.1452 16.1697L12.3617 15.7354L12.3389 13.0867C12.3124 10.0035 12.297 9.92715 11.5353 9.06849C10.9069 8.3603 10.1994 8.01787 9.27855 7.97644C8.76005 7.95311 8.49285 7.98055 8.16922 8.09061ZM13.7504 13.9564V17.2772H14.4092H15.0681V15.9285V14.5798L15.3976 14.6042L15.727 14.6285L15.7482 15.956L15.7696 17.2835L16.4071 17.2606L17.0448 17.2376L17.065 13.9366L17.0852 10.6357H16.4255H15.7658V11.9402V13.2448H15.4169H15.0681V11.9402V10.6357H14.4092H13.7504V13.9564ZM17.7037 13.9564V17.2772H19.0214H20.3392V16.6051V15.9331H19.6803H19.0214V15.261V14.5889H19.6803H20.3392V13.9169V13.2448H19.6803H19.0214V12.5728V11.9007H19.6803H20.3392V11.2682V10.6357H19.0214H17.7037V13.9564ZM20.9593 13.9564V17.2772H22.2771H23.5949V16.6051V15.9331H22.936H22.2771V13.2844V10.6357H21.6182H20.9593V13.9564ZM24.9126 13.9564V17.2772H25.5715H26.2304V15.9435V14.6097L26.5404 14.5674C26.711 14.544 27.009 14.4302 27.2026 14.3144C28.5422 13.5136 28.4523 11.49 27.0475 10.8228C26.7108 10.6629 26.5361 10.6371 25.7847 10.6364L24.9126 10.6357V13.9564ZM26.6898 12.1881C26.9073 12.4701 26.8956 12.8107 26.6602 13.0507C26.3127 13.4052 26.2304 13.3214 26.2304 12.6123C26.2304 12.0404 26.2447 11.9798 26.3798 11.9798C26.462 11.9798 26.6015 12.0735 26.6898 12.1881ZM23.476 19.3394L23.0135 20.2947L22.9747 19.4778L22.936 18.6608L22.2965 18.6379L21.657 18.6149V21.942V25.2692L22.2965 25.2462L22.936 25.2233L22.9747 24.4063L23.0135 23.5894L23.476 24.5446C23.7304 25.0701 23.9493 25.5 23.9624 25.5C24.0691 25.5 25.0677 24.9269 25.0677 24.8657C25.0677 24.8222 24.7536 24.1467 24.3696 23.3644L23.6715 21.942L24.3696 20.5197C24.7536 19.7374 25.0677 19.0618 25.0677 19.0184C25.0677 18.9572 24.0691 18.3841 23.9624 18.3841C23.9493 18.3841 23.7304 18.814 23.476 19.3394ZM9.87457 21.9354V25.2628H10.7508C11.5381 25.2628 11.6678 25.242 12.0299 25.058C12.5235 24.8071 12.8653 24.4005 13.0162 23.8845C13.1537 23.4143 13.1774 20.621 13.0481 20.0993C12.9253 19.6028 12.5074 19.0682 12.071 18.849C11.7542 18.69 11.5551 18.6567 10.7854 18.6344L9.87457 18.6081V21.9354ZM13.7504 21.942V25.2628H15.0681H16.3859V24.5907V23.9187H15.7239H15.0618L15.0844 23.2664L15.1069 22.6141L15.7464 22.5912L16.3859 22.5682V21.942V21.3159L15.7464 21.2929L15.1069 21.27L15.0844 20.6177L15.0618 19.9654H15.7239H16.3859V19.2933V18.6213H15.0681H13.7504V21.942ZM18.4783 18.6904C17.9053 18.8822 17.4037 19.337 17.1901 19.8583C17.0638 20.1668 17.0498 20.9703 17.1654 21.2846C17.4291 22.0017 18.0107 22.4624 18.7951 22.5754C19.3971 22.6623 19.6415 22.8699 19.6415 23.2942C19.6415 23.6582 19.3635 23.9187 18.9751 23.9187C18.7733 23.9187 18.6488 23.8462 18.4035 23.5858L18.0899 23.2529L17.6208 23.7242L17.1517 24.1954L17.6053 24.6326C17.8823 24.8996 18.1819 25.1074 18.3748 25.1663C19.3697 25.4704 20.3447 25.0438 20.7746 24.1164C21.1074 23.3984 20.9669 22.496 20.4315 21.9123C20.1848 21.6433 19.5313 21.3114 19.2461 21.3103C18.9397 21.3091 18.5621 21.1519 18.4772 20.9902C18.3274 20.7047 18.3871 20.3045 18.6056 20.1293C18.9225 19.875 19.2071 19.918 19.5905 20.2786L19.9236 20.5918L20.2059 20.3545C20.3611 20.2239 20.5635 20.0091 20.6557 19.8771L20.8233 19.6371L20.5618 19.3597C20.1315 18.9029 19.6975 18.6853 19.154 18.6535C18.8893 18.638 18.5852 18.6547 18.4783 18.6904ZM11.6222 20.1595C11.8116 20.3527 11.8125 20.3609 11.8125 21.942C11.8125 23.5232 11.8116 23.5314 11.6222 23.7246C11.5175 23.8313 11.378 23.9187 11.3121 23.9187C11.2073 23.9187 11.1923 23.6722 11.1923 21.942C11.1923 20.2119 11.2073 19.9654 11.3121 19.9654C11.378 19.9654 11.5175 20.0528 11.6222 20.1595Z" fill="#CADAE4"/>
<path fill-rule="evenodd" clip-rule="evenodd" d="M15.6985 0.0465704C8.12759 0.592924 1.82347 6.17453 0.265836 13.7106C-0.0192195 15.0894 -0.0890964 17.8882 0.125109 19.3413C0.551767 22.2351 1.61754 24.8438 3.30636 27.1279C4.13165 28.244 5.96305 30.0417 7.09121 30.8432C8.19824 31.6295 10.3873 32.7292 11.6653 33.141C15.2198 34.2863 18.8162 34.2863 22.3707 33.141C23.6453 32.7304 25.8443 31.6272 26.8962 30.8709C30.4983 28.2808 32.8954 24.5647 33.7802 20.1988C33.967 19.2775 33.9995 18.8088 34 17.03C34.0008 14.5909 33.8723 13.7143 33.2244 11.7384C30.7626 4.22932 23.6342 -0.526096 15.6985 0.0465704ZM18.5752 0.914114C20.4879 1.1118 22.31 1.61728 24.0154 2.42326C26.9636 3.81657 29.7058 6.4261 31.3045 9.35953C32.7298 11.9751 33.4182 15.2193 33.1753 18.1765C32.6993 23.9712 29.3954 28.8788 24.2376 31.4526C16.8998 35.1143 7.92233 32.6741 3.41896 25.7937C0.229341 20.9206 -0.0423824 14.4338 2.73051 9.35953C3.93535 7.1547 5.94953 4.94171 7.9672 3.60578C11.184 1.476 14.897 0.53389 18.5752 0.914114Z" fill="#CADAE4"/>
</svg>
