<svg width="34" height="34" viewBox="0 0 34 34" fill="none" xmlns="http://www.w3.org/2000/svg">
<path fill-rule="evenodd" clip-rule="evenodd" d="M15.6985 0.0465704C8.12759 0.592924 1.82347 6.17453 0.265836 13.7106C-0.0192195 15.0894 -0.0890964 17.8882 0.125109 19.3413C0.551767 22.2351 1.61754 24.8438 3.30636 27.1279C4.13165 28.244 5.96305 30.0417 7.09121 30.8432C8.19824 31.6295 10.3873 32.7292 11.6653 33.141C15.2198 34.2863 18.8162 34.2863 22.3707 33.141C23.6453 32.7304 25.8443 31.6272 26.8962 30.8709C30.4983 28.2808 32.8954 24.5647 33.7802 20.1988C33.967 19.2775 33.9995 18.8088 34 17.03C34.0008 14.5909 33.8723 13.7143 33.2244 11.7384C30.7626 4.22932 23.6342 -0.526096 15.6985 0.0465704ZM18.5752 0.914114C20.4879 1.1118 22.31 1.61728 24.0154 2.42326C26.9636 3.81657 29.7058 6.4261 31.3045 9.35953C32.7298 11.9751 33.4182 15.2193 33.1753 18.1765C32.6993 23.9712 29.3954 28.8788 24.2376 31.4526C16.8998 35.1143 7.92233 32.6741 3.41896 25.7937C0.229341 20.9206 -0.0423824 14.4338 2.73051 9.35953C3.93535 7.1547 5.94953 4.94171 7.9672 3.60578C11.184 1.476 14.897 0.53389 18.5752 0.914114Z" fill="#CAD9E4"/>
<path d="M10.7802 5.08704C10.6902 5.13233 10.0316 5.755 9.31677 6.47391L8.02216 7.78152L8.00527 17.6311C7.99401 28.5675 7.96587 27.741 8.35988 27.9108C8.64695 28.0297 22.9327 28.0297 23.2085 27.9108C23.3098 27.8656 23.974 27.2429 24.6832 26.524L25.9778 25.2164L25.9947 15.3668C26.006 4.43041 26.0341 5.25686 25.6401 5.08704C25.3587 4.96817 11.0392 4.97383 10.7802 5.08704ZM23.3605 6.84751L22.7695 7.44188H16.409H10.0485L10.6395 6.84751L11.2305 6.25314H17.591H23.9515L23.3605 6.84751ZM24.2048 25.3013L23.5856 25.924V17.1216V8.31928L24.1935 7.70793L24.7958 7.10224L24.8127 15.8876L24.824 24.6786L24.2048 25.3013ZM11.315 10.2213C11.315 11.8685 11.3262 11.9648 11.5626 12.1516C11.754 12.3101 12.0354 12.2704 12.7109 11.9987C13.0543 11.8572 13.3695 11.744 13.4089 11.744C13.4483 11.744 13.7578 11.8572 14.0956 11.9987C14.7485 12.2704 15.0412 12.3101 15.2326 12.1516C15.469 11.9648 15.4802 11.8685 15.4802 10.2213V8.63062H18.9419H22.4036V17.6877V26.7447H15.7898H9.17605V17.7273C9.17605 12.7629 9.19294 8.68723 9.21545 8.67025C9.23234 8.6476 9.71641 8.63062 10.2849 8.63062H11.315V10.2213ZM14.2982 9.70615V10.7817L14.0899 10.6911C13.4145 10.4024 13.437 10.4024 12.7953 10.6628L12.497 10.7817V9.70615V8.63062H13.3976H14.2982V9.70615Z" fill="#CAD9E4"/>
<path d="M16.2488 14.8403C16.0799 14.9818 15.9674 15.2875 15.0293 18.1122C14.4601 19.8217 13.9973 21.2991 13.9973 21.384C13.9973 21.6218 14.3601 21.9331 14.6352 21.9331C14.8291 21.9331 15.0918 21.8142 15.2044 21.684C15.2419 21.6331 15.5859 20.6708 15.7235 20.2179C15.7547 20.1274 15.8423 20.1217 16.6678 20.133L17.5747 20.15L17.8186 20.8859C18.0187 21.4689 18.1063 21.6557 18.2564 21.7746C18.6692 22.1256 19.3133 21.8482 19.3133 21.3274C19.3133 21.1802 17.4496 15.4913 17.2682 15.0667C17.0931 14.6761 16.5865 14.5629 16.2488 14.8403ZM16.9305 18.1914C17.0368 18.5197 17.1244 18.8141 17.1244 18.8594C17.1244 18.916 17.0056 18.933 16.6553 18.933C16.3989 18.933 16.1863 18.916 16.1863 18.8877C16.1863 18.7348 16.6553 17.4668 16.6929 17.5291C16.7179 17.5687 16.8242 17.8687 16.9305 18.1914Z" fill="#CAD9E4"/>
</svg>
