<svg width="20" height="23" viewBox="0 0 20 23" fill="none" xmlns="http://www.w3.org/2000/svg">
<path d="M1.96276 0.104385C1.43552 0.266574 0.843527 0.708087 0.519782 1.16762C-0.0352102 1.96955 -0.0167104 1.60012 0.0110392 11.7009L0.0387888 20.9276L0.279285 21.4322C0.566031 22.0269 1.05627 22.5134 1.64827 22.7928L2.07376 23H9.9824H17.891L18.3443 22.7837C19.1583 22.3873 19.7595 21.5944 19.9353 20.6753L20 20.3239L19.6393 20.5401C19.4358 20.6663 19.0288 20.8645 18.7235 20.9817L18.1685 21.1979L10.3339 21.2249L2.49925 21.252L2.19401 20.9817C1.78701 20.6302 1.76851 20.1076 2.14776 19.7292L2.39751 19.4859L10.1489 19.4409L17.891 19.3958L18.3443 19.1796C18.9363 18.8912 19.3895 18.4407 19.6855 17.828L19.926 17.3234V9.70955V2.0957L19.6855 1.59111C19.3895 0.978402 18.9363 0.527877 18.3443 0.239542L17.891 0.0232906L10.1211 0.00527C3.88673 -0.0127509 2.27726 0.0142806 1.96276 0.104385ZM17.7708 2.04164L18.076 2.30294V9.70955V17.1162L17.7708 17.3775L17.4748 17.6388H10.0009C5.89395 17.6388 2.37901 17.6658 2.18476 17.6928L1.84251 17.7559L1.86101 10.0339L1.88876 2.30294L2.19401 2.04164L2.49 1.78033H9.9824H17.4748L17.7708 2.04164Z" fill="#CAD9E4"/>
<path d="M8.95572 4.46549C7.66074 4.88899 6.84675 5.83509 6.597 7.20468L6.5415 7.54708H7.46649H8.39148L8.45623 7.29478C8.64122 6.54691 9.37196 6.04233 10.1397 6.13243C11.1017 6.23155 11.7029 7.17765 11.3699 8.05166C11.3144 8.17781 10.8797 8.6824 10.3987 9.16896C9.45521 10.1151 9.05747 10.7638 9.05747 11.3495V11.6919H9.98245C10.8982 11.6919 10.9074 11.6919 10.9074 11.4756C10.9074 11.3135 11.1572 11.0071 11.7769 10.3944C12.4152 9.77266 12.7297 9.3762 12.9609 8.92568C13.2384 8.36703 13.2662 8.24989 13.2569 7.50202C13.2569 6.51087 13.0627 6.05134 12.3874 5.34852C11.5087 4.43846 10.1305 4.08706 8.95572 4.46549Z" fill="#CAD9E4"/>
<path d="M9.05737 13.9447V14.8457H9.98236H10.9073V13.9447V13.0436H9.98236H9.05737V13.9447Z" fill="#CAD9E4"/>
</svg>
