<svg width="34" height="34" viewBox="0 0 34 34" fill="none" xmlns="http://www.w3.org/2000/svg">
<path fill-rule="evenodd" clip-rule="evenodd" d="M16.0071 0.0191083C15.8897 0.0282638 15.6611 0.0458847 15.499 0.0582679C15.337 0.0706512 15.1449 0.0887796 15.0723 0.0985644C14.9996 0.108349 14.8441 0.126985 14.7268 0.139978C14.5213 0.162714 13.8072 0.281005 13.6395 0.320043C13.4633 0.36111 13.3673 0.382487 13.1721 0.424204C12.4317 0.582426 11.0547 1.02581 10.4286 1.30758C10.3727 1.33273 10.2548 1.38194 10.1665 1.41696C10.0154 1.47689 9.01607 1.96387 8.88406 2.04193C8.85052 2.06176 8.74078 2.12242 8.64019 2.17672C8.44072 2.2844 8.41774 2.29808 7.96954 2.57601C7.6872 2.7511 7.49003 2.88342 7.04487 3.19662C6.55217 3.54325 5.82086 4.15167 5.29186 4.65509C4.99097 4.94142 4.3805 5.57671 4.20672 5.78436C4.16374 5.83572 4.05052 5.96818 3.95511 6.07872C3.37171 6.75468 2.66979 7.76889 2.17225 8.65487C1.95856 9.03536 1.53555 9.89182 1.3952 10.2282C1.33696 10.3677 1.27125 10.523 1.24918 10.5733C1.20346 10.6774 1.11481 10.9038 1.09022 10.9793C1.08112 11.0072 1.04482 11.1077 1.00958 11.2026C0.931847 11.4119 0.85324 11.643 0.754127 11.9537C0.674727 12.2026 0.673589 12.2066 0.596018 12.5018C0.568155 12.6079 0.522714 12.7769 0.495055 12.8774C0.467396 12.9779 0.438254 13.092 0.430307 13.1311C0.422341 13.1702 0.399458 13.2798 0.37944 13.3747C0.359402 13.4696 0.328776 13.6158 0.31136 13.6995C0.199952 14.2351 0.0815322 15.1252 0.0345262 15.7803C-0.0286566 16.6608 -0.00274556 18.0186 0.0928313 18.8356C0.135448 19.1997 0.176845 19.5066 0.204077 19.6603C0.219665 19.7482 0.243259 19.8886 0.256489 19.9724C0.269739 20.0561 0.288863 20.1612 0.298983 20.2058C0.309124 20.2505 0.332353 20.3601 0.350643 20.4494C0.368933 20.5388 0.392853 20.653 0.403807 20.7032C0.414761 20.7534 0.430673 20.8265 0.439168 20.8656C0.455589 20.941 0.579739 21.4092 0.646417 21.6472C0.668325 21.7253 0.693871 21.8167 0.703199 21.8502C0.733032 21.9574 0.888195 22.4352 0.929002 22.5455C1.01623 22.7813 1.05029 22.8735 1.11827 23.058C1.19637 23.2701 1.2286 23.3498 1.33572 23.596C1.34543 23.6183 1.39398 23.7325 1.44359 23.8498C1.54307 24.0848 1.9029 24.8254 2.01073 25.017C2.04843 25.084 2.13657 25.2439 2.2066 25.3723C2.53584 25.9759 3.06976 26.7718 3.60934 27.4633C4.34805 28.4099 5.52582 29.5951 6.42452 30.2961C6.96293 30.7162 7.47052 31.0781 7.84761 31.311C7.97056 31.3869 8.14007 31.4915 8.22431 31.5435C8.30852 31.5955 8.46856 31.689 8.57995 31.7514C8.69132 31.8138 8.84189 31.8982 8.91454 31.9388C9.20052 32.0989 10.2555 32.5993 10.307 32.5993C10.3118 32.5993 10.3732 32.6251 10.4433 32.6567C10.5877 32.7217 10.7799 32.799 10.9519 32.8614C11.0162 32.8847 11.1168 32.9215 11.1754 32.9431C11.556 33.0835 11.6786 33.1271 11.6931 33.1271C11.7021 33.1271 11.8191 33.1624 11.9531 33.2056C12.1672 33.2746 12.3085 33.3144 12.8978 33.4717C12.9704 33.4911 13.0802 33.5178 13.1416 33.5312C13.2031 33.5445 13.29 33.5637 13.3347 33.5739C14.1927 33.7689 15.2648 33.9117 16.1748 33.9522C16.3396 33.9596 16.4745 33.9733 16.4745 33.9828C16.4745 33.9922 16.7123 34 17.0029 34C17.2935 34 17.5313 33.9922 17.5313 33.9828C17.5313 33.9733 17.6662 33.9596 17.8311 33.9522C18.744 33.9116 19.7957 33.7714 20.6762 33.5729C20.7237 33.5622 20.8014 33.5447 20.849 33.5341C21.2724 33.4396 22.2899 33.146 22.5916 33.0313C22.6643 33.0037 22.7717 32.9637 22.8304 32.9424C22.8891 32.9212 22.9897 32.8847 23.0539 32.8614C23.226 32.799 23.4181 32.7217 23.5625 32.6567C23.6327 32.6251 23.694 32.5993 23.6988 32.5993C23.7504 32.5993 24.8053 32.0989 25.0913 31.9388C25.6713 31.6141 25.6031 31.6543 26.1582 31.3106C26.6318 31.0173 27.5138 30.3705 27.9263 30.014C28.0157 29.9367 28.1803 29.795 28.2921 29.699C28.7488 29.307 29.9092 28.098 30.2019 27.7094C30.224 27.6801 30.3246 27.551 30.4255 27.4226C30.9235 26.7888 31.444 26.0114 31.7956 25.3763C31.8655 25.2501 31.9541 25.0902 31.9925 25.021C32.1219 24.788 32.4515 24.1057 32.573 23.8193C32.6393 23.663 32.7069 23.5063 32.7232 23.4711C32.861 23.1739 33.2079 22.1792 33.3629 21.637C33.4783 21.2333 33.5892 20.7742 33.6891 20.287C33.8057 19.718 33.9203 18.8576 33.9757 18.1352C34.0082 17.7125 34.0081 16.2191 33.9756 15.8209C33.9138 15.0635 33.7925 14.1523 33.6891 13.6691C33.6796 13.6244 33.653 13.4965 33.6301 13.3849C33.5889 13.1847 33.4966 12.8193 33.3427 12.248C33.3016 12.0953 33.0849 11.4416 32.9962 11.2026C32.961 11.1077 32.9158 10.9843 32.8956 10.9285C32.8545 10.8143 32.6869 10.4037 32.6298 10.2773C32.6092 10.2317 32.573 10.1449 32.5492 10.0844C32.4083 9.72545 31.828 8.61871 31.5229 8.12705C31.4466 8.00424 31.3479 7.84437 31.3034 7.7718C31.1812 7.5723 30.7786 7.00174 30.5595 6.71749C30.2486 6.31406 30.2086 6.26347 30.0906 6.12427C29.813 5.79676 29.7027 5.67285 29.4536 5.40888C29.3072 5.25373 29.1722 5.10756 29.1537 5.08408C29.1081 5.02648 28.2933 4.259 28.1881 4.17463C28.1421 4.13775 28.0141 4.02957 27.9036 3.93424C27.4679 3.55825 26.5853 2.91347 26.0725 2.59652C25.7169 2.37668 25.5451 2.27494 25.3656 2.17766C25.265 2.12315 25.1553 2.06223 25.1218 2.04229C24.964 1.94842 23.9829 1.47313 23.7906 1.39745C23.731 1.37396 23.6448 1.33789 23.5992 1.31728C23.457 1.25309 23.2564 1.17045 23.1505 1.13243C23.0946 1.11235 22.9437 1.05788 22.8152 1.01135C22.4885 0.893165 21.9067 0.706584 21.6101 0.624895C21.5341 0.603965 21.374 0.559852 21.2544 0.526843C21.1348 0.493835 20.9638 0.451326 20.8744 0.432365C20.68 0.391196 20.5573 0.364561 20.4476 0.339754C20.2245 0.289308 19.4657 0.160542 19.2689 0.139714C19.1459 0.126701 18.9905 0.108126 18.9234 0.0984021C18.8097 0.0819587 18.6624 0.0695349 17.9581 0.0170379C17.6396 -0.00669336 16.32 -0.00529284 16.0071 0.0191083ZM17.9886 0.870429C18.7102 0.916856 19.5122 1.01728 20.0812 1.13251C20.6487 1.24741 20.8067 1.28168 20.9353 1.31771C21.0136 1.33961 21.1279 1.371 21.1894 1.38744C21.6946 1.5226 22.3722 1.74028 22.6706 1.86335C22.7532 1.89741 22.8277 1.92526 22.8362 1.92526C22.8446 1.92526 23.0149 1.9943 23.2144 2.07867C23.414 2.16306 23.6138 2.24741 23.6585 2.26615C23.7732 2.31414 24.587 2.72069 24.7458 2.80929C24.8185 2.84983 24.9282 2.91026 24.9897 2.94359C25.4777 3.20825 26.3889 3.81688 26.9077 4.22474C27.8751 4.98525 28.9579 6.05365 29.649 6.92933C30.2001 7.62774 30.7028 8.37299 31.0662 9.03043C31.1372 9.15883 31.2257 9.31869 31.2628 9.38568C31.3301 9.50708 31.7164 10.2865 31.7164 10.3008C31.7164 10.3049 31.7439 10.3682 31.7774 10.4413C31.8109 10.5145 31.8384 10.5783 31.8384 10.5833C31.8384 10.5883 31.8604 10.6406 31.8873 10.6995C31.954 10.8456 32.0841 11.1607 32.1035 11.2229C32.1122 11.2508 32.1484 11.3513 32.1842 11.4462C32.387 11.9856 32.641 12.837 32.7534 13.3544C32.7765 13.4605 32.8041 13.5861 32.8148 13.6336C32.8716 13.886 32.875 13.9038 32.9367 14.273C32.9483 14.3428 32.9665 14.4456 32.9771 14.5014C33.008 14.6649 33.076 15.2442 33.1093 15.6281C33.176 16.397 33.1798 17.4422 33.1186 18.2265C33.0931 18.5548 33.0066 19.3035 32.9781 19.4446C32.9679 19.4948 32.9486 19.6044 32.9353 19.6882C32.9077 19.8615 32.858 20.1311 32.8343 20.2363C32.8254 20.2754 32.7995 20.3987 32.7767 20.5104C32.7538 20.6221 32.7306 20.7272 32.7251 20.7439C32.7195 20.7606 32.6816 20.9021 32.6407 21.0585C32.5187 21.5251 32.3093 22.1871 32.1431 22.6317C32.1076 22.7266 32.0713 22.8271 32.0623 22.855C32.0446 22.9104 31.8203 23.4421 31.7562 23.5806C31.7343 23.6279 31.7164 23.6714 31.7164 23.6772C31.7164 23.6909 31.2888 24.5482 31.2355 24.6415C31.2131 24.6806 31.1371 24.8176 31.0666 24.946C30.4229 26.1174 29.4943 27.3327 28.4452 28.3768C27.5518 29.2659 26.581 30.047 25.6603 30.6176C25.5541 30.6834 25.3987 30.7802 25.3148 30.8327C25.231 30.8852 25.1075 30.9581 25.0405 30.9946C24.9734 31.0311 24.7999 31.1255 24.6549 31.2043C24.4228 31.3306 23.6619 31.706 23.6382 31.706C23.6333 31.706 23.581 31.7279 23.522 31.7546C23.3401 31.8369 22.8351 32.0512 22.823 32.0512C22.8168 32.0512 22.6867 32.0977 22.534 32.1545C22.3812 32.2114 22.2197 32.2698 22.175 32.2844C21.9321 32.3634 21.4848 32.5003 21.3519 32.5363C21.1072 32.6025 20.9607 32.642 20.8845 32.6623C20.2632 32.8274 19.1476 33.0088 18.4052 33.0653C18.2543 33.0769 18.014 33.0955 17.8713 33.1067C17.5432 33.1325 16.4368 33.1332 16.1403 33.1079C16.0167 33.0973 15.7785 33.0787 15.6108 33.0665C15.3232 33.0457 15.2313 33.0361 14.8233 32.9838C14.3733 32.9262 13.4423 32.7492 13.0807 32.6525C12.7083 32.553 12.4741 32.4868 12.2678 32.4226C11.876 32.3008 11.7605 32.2619 11.4719 32.1545C11.3191 32.0977 11.1891 32.0512 11.1828 32.0512C11.1707 32.0512 10.6657 31.8369 10.4838 31.7546C10.4249 31.7279 10.3718 31.706 10.3659 31.706C10.3354 31.706 9.50402 31.2947 9.28823 31.1729C9.20005 31.1231 9.06391 31.0477 8.98567 31.0053C8.90743 30.9628 8.77482 30.8853 8.69099 30.833C8.60716 30.7807 8.47263 30.6976 8.39203 30.6485C7.81452 30.2963 7.07541 29.7468 6.40471 29.1709C5.7235 28.586 4.82215 27.6424 4.27917 26.9456C3.95346 26.5276 3.90262 26.4584 3.66763 26.1133C3.36795 25.6731 2.89907 24.9166 2.89907 24.8732C2.89907 24.8696 2.87021 24.8182 2.83493 24.7591C2.77098 24.652 2.28939 23.6981 2.28939 23.6785C2.28939 23.6729 2.26763 23.62 2.24103 23.5611C2.16817 23.3996 1.95397 22.881 1.9054 22.7485C1.88187 22.6843 1.84433 22.5815 1.82197 22.5201C1.79962 22.4587 1.76369 22.3605 1.74213 22.3019C1.72057 22.2432 1.66124 22.0628 1.6103 21.9009C1.55935 21.739 1.50884 21.5792 1.49807 21.5457C1.46493 21.4426 1.26544 20.6869 1.24351 20.5814C1.23538 20.5423 1.21108 20.4281 1.18952 20.3276C0.774409 18.3945 0.728988 16.2468 1.06222 14.3085C1.13211 13.902 1.1441 13.8385 1.19232 13.6183C1.21555 13.5123 1.2399 13.3981 1.24642 13.3646C1.25758 13.3072 1.33557 13.0066 1.44652 12.5932C1.50334 12.3814 1.72642 11.698 1.82088 11.4462C1.85648 11.3513 1.89955 11.2335 1.91658 11.1844C2.0301 10.8572 2.53054 9.76774 2.74752 9.37553C2.80002 9.28063 2.87033 9.15274 2.90378 9.09133C3.14296 8.65209 3.75686 7.70259 4.02597 7.35564C4.09525 7.26631 4.21501 7.11102 4.2921 7.01053C4.587 6.6261 5.06222 6.09743 5.57112 5.58769C6.03784 5.12021 6.22861 4.94384 6.71093 4.53387C7.29034 4.04138 8.38018 3.28807 8.99583 2.95452C9.06848 2.91515 9.18737 2.84979 9.26002 2.80927C9.41903 2.72061 10.2328 2.3141 10.3473 2.26615C10.392 2.24741 10.5918 2.16306 10.7914 2.07867C10.991 1.9943 11.1626 1.92526 11.1727 1.92526C11.1829 1.92526 11.2071 1.91645 11.2265 1.90569C11.3753 1.82319 12.2872 1.52642 12.8774 1.3684C13.1817 1.28693 13.3588 1.24706 13.9266 1.13212C14.1818 1.08046 14.8343 0.979767 15.0926 0.952179C15.21 0.939653 15.3426 0.924509 15.3873 0.918541C15.9237 0.84686 17.2429 0.822459 17.9886 0.870429ZM10.4129 4.83677C10.2635 4.89814 10.1252 5.0112 10.0674 5.11926L10.0221 5.20379L10.0162 6.74662C10.0122 7.81098 10.0172 8.31711 10.0325 8.37864C10.0844 8.58757 10.2519 8.73235 10.5294 8.8083C10.8292 8.89029 11.0816 8.83152 11.2884 8.63156C11.4634 8.46234 11.4567 8.53901 11.4503 6.77523L11.4447 5.24439L11.3878 5.12866C11.3238 4.99847 11.211 4.90476 11.0305 4.83182C10.8708 4.76731 10.5762 4.76968 10.4129 4.83677ZM14.6222 4.82642C14.4062 4.91081 14.2571 5.06678 14.218 5.2493C14.2047 5.31136 14.1993 5.89023 14.2029 6.86843L14.2086 8.39096L14.2592 8.48997C14.3284 8.62533 14.4493 8.72511 14.6276 8.79407C14.7621 8.84606 14.7967 8.85121 14.9626 8.84401C15.1209 8.83712 15.1662 8.82657 15.2776 8.77076C15.4315 8.6936 15.4948 8.64037 15.5731 8.52216L15.6311 8.43453V6.81916V5.20379L15.5755 5.10929C15.5225 5.01926 15.3849 4.90277 15.2755 4.85531C15.1365 4.79504 15.0967 4.78769 14.9138 4.78858C14.7733 4.78925 14.6895 4.80013 14.6222 4.82642ZM18.8174 4.82654C18.7592 4.8464 18.6951 4.87496 18.6752 4.89C18.578 4.96329 18.4787 5.06962 18.439 5.14289L18.395 5.22409V6.78722C18.395 8.27182 18.3969 8.35535 18.4334 8.44991C18.489 8.5938 18.585 8.68873 18.7551 8.76794C18.9357 8.85207 19.164 8.8722 19.3441 8.81991C19.5113 8.77135 19.6918 8.64535 19.7599 8.52959L19.8176 8.43156V6.81767V5.20379L19.762 5.10929C19.6978 5.00027 19.546 4.8814 19.4001 4.82604C19.2659 4.77508 18.9678 4.77535 18.8174 4.82654ZM23.0489 4.81136C22.8509 4.87798 22.7035 4.99601 22.6341 5.1436C22.5922 5.23263 22.5916 5.25389 22.5916 6.80482C22.5916 8.51845 22.5854 8.42509 22.7108 8.59742C22.7557 8.65907 22.8152 8.70318 22.9299 8.75982C23.0675 8.82781 23.1089 8.83848 23.2594 8.84486C23.4745 8.85399 23.6136 8.8149 23.7795 8.69863C23.8678 8.63678 23.9158 8.58451 23.9573 8.50517L24.0142 8.39648V6.81899V5.24153L23.9583 5.13131C23.8935 5.00352 23.7563 4.89004 23.5917 4.82809C23.4727 4.78324 23.1609 4.77364 23.0489 4.81136ZM9.27018 6.15147C8.6675 6.2655 8.30911 6.3991 7.91874 6.65529C7.27242 7.07947 6.84022 7.62267 6.57889 8.33926C6.48045 8.60919 6.42877 8.84821 6.39501 9.18991C6.36577 9.48564 6.36624 25.0356 6.39548 25.2364C6.4849 25.8506 6.71278 26.4008 7.06761 26.8594C7.188 27.0149 7.5399 27.364 7.68503 27.4719C8.05445 27.7463 8.44129 27.9333 8.88483 28.0518C9.27565 28.1561 8.9524 28.1521 17.0979 28.1528C22.5727 28.1533 24.7118 28.1472 24.79 28.131C25.0719 28.0723 25.3253 28.0071 25.4413 27.9631C25.896 27.791 26.3271 27.5117 26.6615 27.1725C27.1602 26.6667 27.4533 26.0818 27.5941 25.3114C27.6284 25.1238 27.645 9.34305 27.6112 9.09133C27.5018 8.27797 27.1536 7.59543 26.5647 7.03982C26.0212 6.52713 25.2925 6.2128 24.518 6.157C24.3444 6.14449 24.3408 6.14516 24.3305 6.19169C24.3247 6.21778 24.3222 6.57255 24.3249 6.98008L24.3297 7.72105L24.3868 7.81666C24.5256 8.04928 24.5861 8.35052 24.5442 8.60042C24.4904 8.92074 24.3747 9.13879 24.1443 9.35406C23.8981 9.58408 23.6533 9.68004 23.3126 9.68004C22.958 9.68004 22.6708 9.55759 22.4067 9.29368C22.256 9.14322 22.126 8.9068 22.0854 8.7097C22.0193 8.38885 22.087 8.02129 22.2599 7.76191L22.3274 7.66069V6.8939V6.12711L21.2351 6.13235L20.1427 6.13761L20.1374 6.91469L20.1321 7.69175L20.2024 7.82821C20.2411 7.90324 20.2834 7.99206 20.2965 8.02555C20.3291 8.10897 20.3764 8.35513 20.3764 8.44171C20.3764 8.58213 20.3132 8.82044 20.2311 8.98982C20.1249 9.20868 19.888 9.45231 19.6848 9.55172C19.231 9.77371 18.7367 9.72383 18.334 9.41546C18.1808 9.29811 18.0095 9.05962 17.9407 8.86802C17.8106 8.50537 17.8558 8.08932 18.0597 7.77421L18.1415 7.64786L18.1361 6.89275L18.1308 6.13761H17.0436H15.9563L15.951 6.91739L15.9457 7.69715L16.0167 7.83428C16.1068 8.0083 16.1405 8.11047 16.1682 8.29453C16.2165 8.61488 16.0871 9.02027 15.8567 9.27062C15.3563 9.81437 14.5176 9.82622 14.0174 9.29659C13.9322 9.20643 13.8072 9.01686 13.7728 8.9257C13.7587 8.88838 13.7398 8.8396 13.7307 8.81727C13.7033 8.74975 13.67 8.54254 13.67 8.43966C13.67 8.32338 13.7162 8.09423 13.7643 7.97206C13.7835 7.92332 13.8342 7.82764 13.8769 7.75945L13.9545 7.63546V6.88128V6.12711L12.8622 6.13235L11.7699 6.13761L11.7645 6.92726L11.7592 7.7169L11.8221 7.82829C12.0052 8.15235 12.0325 8.53982 11.8966 8.88832C11.7593 9.24062 11.4933 9.49301 11.1239 9.62145C10.9804 9.67135 10.9261 9.67953 10.737 9.67978C10.3898 9.6802 10.1164 9.57464 9.88653 9.3515C9.61941 9.09218 9.48207 8.77507 9.48428 8.42275C9.48568 8.19983 9.58348 7.89275 9.7061 7.72618L9.76809 7.642V6.88473V6.12746L9.56994 6.12985C9.46097 6.13117 9.32607 6.14092 9.27018 6.15147ZM24.3964 12.096C24.8121 12.1499 25.1241 12.3642 25.2991 12.716C25.4135 12.9461 25.4064 12.5216 25.4045 19.0084L25.4027 24.9974L25.359 25.1327C25.2136 25.5823 24.8685 25.8752 24.4091 25.9391C24.3187 25.9517 21.6223 25.9524 16.8911 25.9411C9.64904 25.9237 9.512 25.9227 9.40147 25.8838C9.01792 25.7487 8.77037 25.5077 8.63641 25.1388C8.60109 25.0416 8.5997 24.7868 8.6035 19.0259L8.60747 13.0145L8.6525 12.8754C8.72926 12.638 8.85587 12.4494 9.02323 12.3232C9.15329 12.2251 9.27565 12.1612 9.4226 12.1146C9.52806 12.0812 9.95032 12.0791 16.8911 12.078C21.4212 12.0772 24.305 12.0841 24.3964 12.096ZM16.444 14.5364C16.1297 14.5778 15.7275 14.7039 15.4833 14.8377C15.1749 15.0067 14.9898 15.1563 14.8139 15.3791C14.6853 15.5419 14.645 15.6019 14.5448 15.7803C14.4425 15.9623 14.2751 16.4564 14.2307 16.7075C14.2149 16.7968 14.188 16.786 14.5947 16.8551C14.7624 16.8836 15.0047 16.9259 15.1332 16.9489C15.7955 17.0679 15.7476 17.071 15.7756 16.907C15.8612 16.4063 16.1515 16.04 16.566 15.9098C16.7475 15.8529 17.1662 15.8912 17.3382 15.9805C17.4249 16.0255 17.5856 16.1449 17.6282 16.196C17.6867 16.2662 17.7647 16.4128 17.8003 16.5193C17.8513 16.6719 17.8536 17.0127 17.8049 17.1818C17.6632 17.6739 17.2639 17.9469 16.6125 17.9971C16.5247 18.0038 16.4494 18.0149 16.4452 18.0216C16.438 18.0333 16.3778 18.4491 16.3304 18.8153C16.318 18.9102 16.2997 19.0374 16.2897 19.0981C16.2796 19.1588 16.2713 19.2397 16.2713 19.278C16.2713 19.3448 16.2739 19.3471 16.3373 19.3381C16.3737 19.3329 16.4766 19.3121 16.566 19.2917C16.6757 19.2668 16.8145 19.2543 16.9927 19.2534C17.222 19.2522 17.2731 19.2582 17.3789 19.2989C17.7891 19.4566 18.0232 19.7186 18.1499 20.1619C18.2585 20.542 18.207 21.0813 18.0282 21.4359C17.936 21.619 17.6932 21.8766 17.5445 21.9493C17.0222 22.2046 16.5053 22.1316 16.1197 21.7482C15.9171 21.5467 15.7913 21.2914 15.7224 20.9417C15.6967 20.8116 15.7031 20.8146 15.5109 20.8437C15.4429 20.854 15.2958 20.8727 15.184 20.8853C14.9774 20.9085 14.7571 20.9344 14.4829 20.9676C14.3991 20.9778 14.2769 20.9917 14.2115 20.9986L14.0924 21.0112L14.1065 21.1465C14.1484 21.5492 14.3552 22.0524 14.6227 22.402C14.9571 22.839 15.4049 23.1568 15.9308 23.33C16.127 23.3947 16.2107 23.4142 16.5037 23.4639C16.6625 23.4908 17.2569 23.4901 17.4273 23.4628C17.8528 23.3946 18.2067 23.2767 18.5169 23.0997C19.0757 22.7809 19.5797 22.1769 19.7747 21.5923C19.9397 21.0976 19.9634 20.5859 19.8441 20.0942C19.742 19.6734 19.452 19.244 19.0961 18.987C18.9429 18.8763 18.6458 18.7324 18.444 18.6712C18.36 18.6457 18.3036 18.6175 18.3036 18.601C18.3036 18.5858 18.347 18.5485 18.4001 18.518C18.4532 18.4876 18.5744 18.4036 18.6694 18.3313C19.1288 17.982 19.3483 17.6669 19.4847 17.1608C19.5219 17.0225 19.5222 16.4645 19.485 16.3284C19.3582 15.864 19.1421 15.5006 18.8104 15.1938C18.4711 14.88 18.0036 14.6433 17.5821 14.572C17.5039 14.5588 17.3959 14.5398 17.3423 14.5298C17.2204 14.507 16.6345 14.5113 16.444 14.5364Z" fill="#CADAE4"/>
</svg>
