<svg width="23" height="23" viewBox="0 0 23 23" fill="none" xmlns="http://www.w3.org/2000/svg">
<path fill-rule="evenodd" clip-rule="evenodd" d="M10.1154 0.0479937C9.14092 0.361137 8.56146 1.07097 8.43062 2.11179C8.35015 2.75237 8.33369 2.78596 8.02292 2.94653C7.69485 3.11609 7.40008 3.03746 6.98069 2.66859C6.33931 2.10449 5.26885 1.97213 4.49777 2.3616C4.05262 2.5865 2.57077 4.0672 2.34569 4.51202C1.95092 5.29234 2.08577 6.30202 2.67946 7.01047C2.94515 7.32746 3 7.44883 3 7.71931C3 8.19464 2.80862 8.35244 2.12885 8.43768C1.21369 8.55252 0.575846 8.97903 0.179769 9.74099C0.0103078 10.067 0 10.1683 0 11.5089C0 12.8494 0.0103078 12.9507 0.179769 13.2767C0.575846 14.0387 1.21369 14.4652 2.12885 14.58C2.81 14.6655 3 14.8228 3 15.3013C3 15.5796 2.94908 15.6886 2.67162 16.0035C2.26008 16.4706 2.08115 17.0331 2.13423 17.6931C2.18946 18.3812 2.41592 18.7479 3.37431 19.7015C4.09523 20.4189 4.30377 20.5813 4.69231 20.7276C5.53438 21.0448 6.34069 20.8796 7.11823 20.2305C7.41485 19.9829 7.49377 19.9531 7.75877 19.9886C8.20562 20.0485 8.34623 20.2344 8.42631 20.8713C8.464 21.1714 8.54454 21.5358 8.60531 21.6812C8.76831 22.0709 9.24469 22.5611 9.68746 22.7946C10.0689 22.9958 10.106 23 11.5 23C12.8415 23 12.9429 22.9897 13.2692 22.8204C14.0264 22.4274 14.4587 21.7863 14.5714 20.8895C14.6497 20.2665 14.6672 20.2313 14.9771 20.0712C15.2852 19.9119 15.6 19.9776 15.9342 20.2707C16.45 20.7233 16.7838 20.846 17.5 20.846C18.0386 20.846 18.2148 20.8139 18.5 20.6642C18.954 20.4258 20.4322 18.9447 20.6543 18.5057C21.0491 17.7254 20.9142 16.7157 20.3205 16.0072C20.0548 15.6902 20 15.5689 20 15.2984C20 14.8198 20.1901 14.6654 20.8876 14.578C21.7945 14.4642 22.3952 14.0665 22.7953 13.3152C22.9957 12.9389 23 12.901 23 11.5089C23 10.1688 22.9896 10.067 22.8204 9.74099C22.4196 8.96935 21.8019 8.55452 20.8821 8.43907C20.1892 8.35213 20 8.19718 20 7.71639C20 7.43815 20.0509 7.32915 20.3284 7.01424C20.7399 6.54706 20.9188 5.98465 20.8658 5.32462C20.8105 4.63653 20.5841 4.26982 19.6257 3.31617C18.9048 2.5988 18.6962 2.43638 18.3077 2.29011C17.4779 1.97751 16.616 2.14876 15.9124 2.76605C15.686 2.96467 15.5608 3.0154 15.297 3.0154C14.8141 3.0154 14.6592 2.82708 14.5722 2.134C14.4566 1.21486 14.0415 0.597647 13.2692 0.197186C12.9508 0.0320828 12.8185 0.0164793 11.6154 0.00195207C10.8962 -0.00665668 10.2212 0.0140199 10.1154 0.0479937ZM12.7698 1.68965C12.9348 1.83154 12.9838 1.96298 13.0409 2.41771C13.1579 3.34899 13.5713 3.95921 14.3675 4.37581C14.6239 4.50994 14.8219 4.54576 15.3077 4.54576C15.9974 4.54576 16.3799 4.39756 16.9041 3.92762C17.1199 3.734 17.2633 3.66874 17.4725 3.66874C17.7229 3.66874 17.8323 3.7473 18.5136 4.41617C18.9323 4.82723 19.2947 5.2423 19.3188 5.33853C19.3838 5.5971 19.2944 5.86367 19.0477 6.14622C18.6045 6.65383 18.4628 7.03353 18.4664 7.70409C18.4689 8.19057 18.5066 8.39126 18.6469 8.66489C19.0398 9.43099 19.692 9.86712 20.5881 9.96274C21.433 10.053 21.4615 10.1035 21.4615 11.5089C21.4615 12.9085 21.4422 12.9427 20.5897 13.0496C19.6788 13.1639 19.0575 13.5732 18.6698 14.3144C18.5018 14.6354 18.4688 14.7999 18.4688 15.3136C18.4688 15.8272 18.5021 15.9926 18.6707 16.3177C18.7818 16.5317 18.9295 16.754 18.9991 16.8117C19.1828 16.964 19.3462 17.3115 19.3462 17.5496C19.3462 17.7077 19.1701 17.9354 18.5982 18.5171C18.1868 18.9354 17.7714 19.2975 17.6751 19.3217C17.4163 19.3866 17.1495 19.2972 16.8668 19.0507C16.3685 18.6165 15.9793 18.4719 15.3077 18.4719C14.8219 18.4719 14.6239 18.5078 14.3675 18.6419C13.5738 19.0572 13.1578 19.6693 13.0418 20.5922C12.9349 21.4434 12.9005 21.4627 11.5 21.4627C10.0935 21.4627 10.043 21.4342 9.95269 20.5899C9.85708 19.6957 9.42377 19.0477 8.65385 18.6476C8.37523 18.5028 8.18762 18.4677 7.69231 18.4677C7.02162 18.4677 6.63723 18.6115 6.13323 19.0507C5.85046 19.2972 5.58369 19.3866 5.32492 19.3217C5.22862 19.2975 4.81323 18.9354 4.40185 18.5171C3.82992 17.9354 3.65385 17.7077 3.65385 17.5496C3.65385 17.3115 3.81723 16.964 4.00092 16.8117C4.07046 16.754 4.21923 16.5317 4.33146 16.3177C4.61346 15.7799 4.62469 14.8695 4.35577 14.3528C3.95631 13.5853 3.32585 13.1645 2.40185 13.0486C1.94677 12.9915 1.81523 12.9425 1.67323 12.7776C1.51154 12.5898 1.5 12.5054 1.5 11.5089C1.5 10.4993 1.50985 10.4299 1.68069 10.2315C1.83277 10.0547 1.94708 10.0124 2.403 9.96374C3.31546 9.86627 3.94192 9.44398 4.36146 8.64352C4.49569 8.38734 4.53154 8.18949 4.53154 7.70409C4.53154 7.033 4.38692 6.64407 3.95231 6.14622C3.70562 5.86367 3.61615 5.5971 3.68115 5.33853C3.70531 5.2423 4.07231 4.82262 4.49677 4.40594C5.26454 3.65222 5.27 3.6486 5.58585 3.69096C5.79238 3.71863 5.98731 3.81325 6.14392 3.96182C6.59415 4.38903 7.00969 4.54576 7.69231 4.54576C8.17808 4.54576 8.37608 4.50994 8.63246 4.37581C9.43354 3.9566 9.85615 3.33062 9.95369 2.41886C10.0024 1.96329 10.0448 1.84907 10.2216 1.69711C10.4202 1.52639 10.4897 1.51655 11.5 1.51655C12.4973 1.51655 12.5818 1.52808 12.7698 1.68965ZM10.3846 6.23692C9.15762 6.52124 8.08762 7.18688 7.31123 8.14891C6.86892 8.69694 6.62108 9.14952 6.37131 9.86474C6.18069 10.4107 6.15954 10.5747 6.15954 11.5089C6.15954 12.4389 6.18115 12.6083 6.36785 13.1427C6.87054 14.5813 7.787 15.6489 9.07692 16.2982C9.97892 16.7524 10.4111 16.8483 11.5385 16.8445C12.4225 16.8415 12.6088 16.8168 13.1454 16.6316C14.8551 16.0412 16.0328 14.8565 16.6331 13.123C16.8089 12.6154 16.8331 12.4226 16.8353 11.5089C16.8375 10.577 16.8167 10.4103 16.6303 9.87358C16.0582 8.22569 14.7679 6.9333 13.1576 6.39541C12.4001 6.1423 11.1108 6.06866 10.3846 6.23692ZM12.2847 7.7506C12.9942 7.89841 13.6482 8.26128 14.1979 8.81178C15.7255 10.3418 15.7255 12.6783 14.1979 14.2047C12.6703 15.7311 10.3297 15.7311 8.80208 14.2047C7.27446 12.6783 7.27446 10.3394 8.80208 8.81301C9.74262 7.87319 11.013 7.48565 12.2847 7.7506Z" fill="#CADAE4"/>
</svg>
