<svg width="75" height="94" viewBox="0 0 75 94" fill="none" xmlns="http://www.w3.org/2000/svg">
<path d="M23.275 77V15.2605H43.2793C50.8599 15.2605 55.8013 15.5693 58.1035 16.187C61.6411 17.1135 64.6031 19.135 66.9896 22.2515C69.3761 25.3398 70.5693 29.3407 70.5693 34.254C70.5693 38.0443 69.8815 41.231 68.5057 43.814C67.13 46.397 65.3752 48.4325 63.2415 49.9205C61.1357 51.3805 58.9879 52.3491 56.798 52.8264C53.8219 53.416 49.5122 53.7108 43.8689 53.7108H35.7408V77H23.275ZM35.7408 25.7048V43.2244H42.5634C47.4767 43.2244 50.7616 42.9015 52.4181 42.2557C54.0746 41.61 55.3661 40.5992 56.2926 39.2235C57.2472 37.8478 57.7245 36.2474 57.7245 34.4225C57.7245 32.1764 57.0647 30.3234 55.7451 28.8634C54.4255 27.4034 52.755 26.491 50.7335 26.126C49.2455 25.8452 46.2554 25.7048 41.7632 25.7048H35.7408Z" fill="white" fill-opacity="0.8"/>
<path d="M5.896 77V15.2605H18.3618V77H5.896Z" fill="#A6C5FF"/>
</svg>
