<svg width="23" height="24" viewBox="0 0 23 24" fill="none" xmlns="http://www.w3.org/2000/svg">
<path fill-rule="evenodd" clip-rule="evenodd" d="M2.76431 0.102069C1.45805 0.432411 0.357208 1.61525 0.083778 2.98217C-0.027926 3.54087 -0.027926 20.4641 0.083778 21.0228C0.370019 22.4538 1.54543 23.6599 2.9192 23.9322C3.21408 23.9906 4.37243 24.0105 6.5706 23.9948L9.79007 23.972L10.0254 23.7266C10.2336 23.5095 10.2606 23.4343 10.2606 23.0714C10.2606 22.7087 10.2336 22.6334 10.0254 22.4162L9.79015 22.1709L6.46263 22.1334C3.35745 22.0983 3.11634 22.0862 2.85421 21.9505C2.49592 21.7652 2.15671 21.4115 1.979 21.038C1.84355 20.7533 1.83959 20.499 1.83959 12.0025C1.83959 3.50597 1.84355 3.25165 1.979 2.96701C2.15671 2.59344 2.49592 2.23976 2.85421 2.05448C3.12534 1.91422 3.34522 1.90912 9.14497 1.90912H15.1548L15.4427 2.07136C15.8151 2.28126 16.1578 2.65723 16.3207 3.03477C16.4388 3.30823 16.4535 3.69426 16.4863 7.37478L16.5223 11.4146L16.7531 11.6295C17.2273 12.0711 17.8688 11.96 18.1488 11.3877C18.2881 11.1029 18.292 10.9682 18.2709 7.06424L18.2492 3.03477L18.0571 2.51855C17.6972 1.55139 17.1661 0.909613 16.3512 0.456725C15.4991 -0.0168007 15.6846 -0.00509391 9.11186 0.00188515C4.59483 0.00668795 3.04458 0.0311523 2.76431 0.102069ZM8.1256 3.63708C8.02016 3.69681 7.50828 4.2856 6.98805 4.94554C6.46774 5.6054 6.00826 6.16717 5.96688 6.19389C5.92549 6.22053 5.69136 6.03532 5.4465 5.78235C4.97997 5.30019 4.67336 5.14921 4.31349 5.22425C4.04639 5.27993 3.69796 5.6144 3.63513 5.87548C3.53307 6.29962 3.65845 6.57121 4.26483 7.2391C5.14738 8.21129 5.63587 8.43995 6.35986 8.22007C6.80372 8.08514 7.06837 7.81678 8.29063 6.26165C9.47922 4.74945 9.43287 4.82322 9.43287 4.44162C9.43287 4.15097 9.39493 4.06565 9.15346 3.81388C8.92322 3.57389 8.82497 3.52308 8.59566 3.52556C8.4425 3.52721 8.23104 3.57742 8.1256 3.63708ZM10.6701 6.17558C10.423 6.31854 10.2256 6.67634 10.2251 6.98222C10.2244 7.34236 10.4879 7.73896 10.8029 7.85213C11.1238 7.96732 13.7327 7.9821 14.0165 7.87029C14.7348 7.58737 14.8861 6.76362 14.3123 6.26015L14.1002 6.07404L12.4682 6.07667C11.2796 6.07862 10.7912 6.10549 10.6701 6.17558ZM8.08328 9.41634C7.99633 9.47982 7.4838 10.0877 6.94429 10.7671C6.40469 11.4466 5.94492 12.0025 5.92247 12.0025C5.90001 12.0025 5.66624 11.7856 5.40296 11.5206C4.85617 10.9702 4.58281 10.8679 4.15601 11.0539C3.70552 11.2501 3.49795 11.7798 3.67803 12.2736C3.78656 12.5713 4.97342 13.7812 5.29392 13.9208C5.67452 14.0865 6.26132 14.0729 6.60068 13.8903C6.94515 13.7049 7.14632 13.4812 8.38708 11.9034C9.24926 10.807 9.38428 10.599 9.4143 10.3211C9.47893 9.72372 9.10697 9.30092 8.51678 9.30092C8.36527 9.30092 8.17022 9.35285 8.08328 9.41634ZM10.9401 11.8452C10.3004 12.0591 10.0471 12.6276 10.3338 13.2057C10.5531 13.648 10.7414 13.691 12.459 13.691C14.1784 13.691 14.2592 13.6712 14.5462 13.1804C14.7238 12.8766 14.7238 12.6293 14.5462 12.3255C14.2641 11.8433 14.1638 11.8165 12.5671 11.7993C11.7735 11.7906 11.0414 11.8114 10.9401 11.8452ZM19.7069 12.8296C18.9825 13.0204 18.7517 13.2235 16.0077 16.0828L13.3338 18.869L13.1878 19.3568C12.0677 23.1 12.0345 23.29 12.4266 23.7167C12.7864 24.1082 13.1082 24.0759 15.1188 23.4464C15.297 23.3906 15.8178 23.2389 16.2763 23.1093L17.11 22.8737L19.8175 20.0834C22.3355 17.4884 22.5417 17.2563 22.7626 16.7678C22.9762 16.295 23 16.1749 23 15.5671C23 14.9672 22.9751 14.8372 22.7772 14.4039C22.3369 13.4395 21.4973 12.8431 20.5021 12.7877C20.2133 12.7716 19.8555 12.7905 19.7069 12.8296ZM20.7396 14.7453C21.1683 14.9764 21.3484 15.5367 21.1334 15.9702C20.8971 16.4467 20.8496 16.4357 20.1885 15.7499C19.854 15.4031 19.5912 15.085 19.6044 15.043C19.6506 14.8957 20.1085 14.629 20.3152 14.629C20.4301 14.629 20.621 14.6813 20.7396 14.7453ZM8.31727 14.9844C8.06687 15.0502 7.95113 15.1728 6.98301 16.3966C6.46235 17.0547 6.00668 17.6257 5.9704 17.6654C5.92916 17.7105 5.71547 17.5421 5.3995 17.2152C4.89964 16.6979 4.89072 16.6927 4.50544 16.6927C4.17328 16.6927 4.08403 16.7249 3.89647 16.9122C3.65924 17.1492 3.55783 17.5083 3.63628 17.834C3.66341 17.9468 3.9945 18.3661 4.3761 18.7711C5.15357 19.5962 5.46435 19.7738 6.03079 19.7168C6.68108 19.6513 6.84726 19.5087 8.09019 17.9485C8.72968 17.1458 9.29705 16.4031 9.35103 16.2979C9.47864 16.0491 9.41969 15.4974 9.24343 15.291C9.10106 15.1243 8.70823 14.9233 8.55348 14.9379C8.50274 14.9427 8.39644 14.9636 8.31727 14.9844ZM17.8541 19.4683L16.1979 21.1953L15.3265 21.4434C14.8473 21.5799 14.445 21.6809 14.4325 21.668C14.42 21.6549 14.5221 21.2562 14.6593 20.7819L14.9087 19.9196L16.5782 18.1753L18.2477 16.431L18.879 17.0861L19.5102 17.7412L17.8541 19.4683Z" fill="#CADAE4"/>
</svg>
