<svg width="34" height="34" viewBox="0 0 34 34" fill="none" xmlns="http://www.w3.org/2000/svg">
<path fill-rule="evenodd" clip-rule="evenodd" d="M15.9349 0.0280515C15.5378 0.0517203 15.1494 0.0893366 14.605 0.156911C14.3701 0.186055 13.8781 0.269263 13.5695 0.332036C13.3686 0.372886 12.8398 0.494861 12.6964 0.533389C12.6127 0.555908 12.4939 0.587472 12.4325 0.603503C12.0138 0.712919 10.8925 1.08446 10.6171 1.20506C10.5714 1.22506 10.4241 1.28635 10.2897 1.34126C9.87653 1.51008 9.20211 1.82952 8.82851 2.03337C8.72801 2.08821 8.58182 2.16725 8.50365 2.20901C8.42548 2.25076 8.277 2.3369 8.17371 2.40041C8.07042 2.46393 7.8968 2.57071 7.78793 2.63771C7.03092 3.10353 6.13229 3.78949 5.42932 4.43813C4.95141 4.8791 4.91723 4.91239 4.59154 5.25378C4.01687 5.85617 3.52137 6.44997 3.09329 7.04927C2.99976 7.18021 2.89384 7.3284 2.85792 7.37857C2.82198 7.42873 2.74268 7.54925 2.68166 7.64641C2.62067 7.74354 2.52236 7.89891 2.46321 7.99166C2.26058 8.30943 2.01265 8.75579 1.7507 9.27448C1.60657 9.55993 1.48862 9.79848 1.48862 9.80461C1.48862 9.81073 1.46671 9.86288 1.43995 9.92048C1.3831 10.0428 1.12688 10.6656 1.06217 10.8387C1.03769 10.9041 1.00949 10.9756 0.999476 10.9974C0.989486 11.0192 0.931965 11.1844 0.871682 11.3644C0.686023 11.919 0.696317 11.8848 0.524382 12.5151C0.487185 12.6515 0.442273 12.8301 0.424588 12.9119C0.406903 12.9938 0.373645 13.1455 0.350702 13.2492C0.292775 13.5109 0.158525 14.3073 0.129997 14.5586C0.116983 14.6732 0.0978564 14.8384 0.087481 14.9256C0.0225894 15.4714 -0.0163334 16.489 0.00665074 17.0386C0.0289851 17.5729 0.0622633 18.0844 0.0879479 18.2885C0.0982623 18.3703 0.117125 18.531 0.129876 18.6456C0.142627 18.7602 0.184108 19.0414 0.222056 19.2705C0.287455 19.6655 0.308937 19.7804 0.351798 19.9649C0.36195 20.0086 0.38932 20.1336 0.412629 20.2427C0.581294 21.0322 1.01005 22.3353 1.34617 23.0798C1.36588 23.1234 1.41887 23.2439 1.46393 23.3476C1.55715 23.562 1.91949 24.2896 2.02219 24.4686C2.05977 24.534 2.1483 24.6903 2.21891 24.8158C2.66067 25.6006 3.3894 26.6168 4.04623 27.3638C4.14154 27.4722 4.27814 27.6277 4.3498 27.7093C4.6065 28.0016 5.50977 28.8628 5.91662 29.2031C6.78825 29.9324 7.69866 30.5596 8.60233 31.0534C8.74906 31.1336 8.90567 31.2196 8.95034 31.2445C9.04102 31.295 9.58902 31.5622 9.79295 31.6552C10.2585 31.8678 11.0388 32.1713 11.5492 32.3386C11.779 32.4138 12.1593 32.5325 12.2396 32.554C13.0483 32.7707 13.5887 32.8909 14.1938 32.9888C14.2581 32.9991 14.3654 33.0169 14.4324 33.0282C14.6446 33.064 15.3946 33.1448 15.7319 33.1682C15.9105 33.1806 16.129 33.199 16.2173 33.2092C16.427 33.2335 17.5397 33.2332 17.7791 33.2089C17.8815 33.1985 18.1069 33.1799 18.28 33.1677C18.6124 33.1442 19.3639 33.0629 19.5693 33.0282C19.6363 33.0169 19.7437 32.9991 19.8079 32.9888C20.1364 32.9356 20.3364 32.8975 20.7064 32.8174C20.8845 32.7789 21.4427 32.6396 21.7622 32.554C21.8424 32.5325 22.2227 32.4138 22.4525 32.3386C23.0027 32.1583 23.7834 31.8521 24.2697 31.6258C24.5557 31.4928 24.9589 31.2961 25.0514 31.2445C25.0961 31.2196 25.2527 31.1336 25.3994 31.0534C26.6738 30.357 27.9055 29.4368 29.0124 28.3541C30.1896 27.2027 31.1087 26.0117 31.8884 24.6273C32.087 24.2747 32.3191 23.8243 32.4559 23.5262C32.4884 23.4552 32.5235 23.3794 32.5339 23.3575C32.5859 23.2484 32.8583 22.6074 32.8583 22.5943C32.8583 22.586 32.8757 22.5356 32.897 22.4823C32.9183 22.429 32.9548 22.334 32.9782 22.2713C33.0016 22.2086 33.0385 22.1104 33.0602 22.0531C33.1234 21.8861 33.3182 21.2738 33.3836 21.0363C33.5055 20.594 33.5462 20.4377 33.5774 20.2923C33.5949 20.2105 33.628 20.0587 33.6509 19.955C33.7064 19.7038 33.826 19.0173 33.8532 18.7944C33.8652 18.6962 33.8841 18.5399 33.8952 18.4472C33.9688 17.835 34.017 16.7278 33.9944 16.1689C33.9744 15.6744 33.9405 15.1509 33.9144 14.9356C33.9045 14.8537 33.8857 14.693 33.8727 14.5785C33.8447 14.333 33.7088 13.5186 33.6507 13.2492C33.5622 12.8382 33.546 12.7708 33.4557 12.4358C33.3236 11.9457 33.1248 11.3234 32.9804 10.9478C32.9448 10.855 32.9085 10.7568 32.8998 10.7295C32.8817 10.6727 32.6699 10.1647 32.6137 10.0435C32.593 9.99894 32.5584 9.91859 32.5367 9.86491C32.4611 9.67772 32.0829 8.93147 31.8891 8.58685C31.2138 7.38649 30.351 6.22936 29.389 5.234C28.5377 4.35307 27.7212 3.6595 26.7429 2.98627C26.3944 2.74649 25.75 2.3442 25.4981 2.20923C25.4199 2.16735 25.2737 2.08821 25.1732 2.03337C24.809 1.83458 24.1629 1.52867 23.7215 1.34602C23.5596 1.27901 23.3997 1.21201 23.3662 1.19713C23.3327 1.18227 23.2002 1.13305 23.0718 1.08779C22.9433 1.04252 22.8017 0.991766 22.7571 0.975002C22.5762 0.90711 21.7892 0.660979 21.5693 0.603503C21.5079 0.587472 21.3891 0.555828 21.3053 0.533231C21.2216 0.510613 20.9886 0.456312 20.7876 0.412546C20.5866 0.368799 20.3855 0.324715 20.3409 0.314597C20.2962 0.304479 20.2277 0.29069 20.1886 0.283925C20.1495 0.277179 20.0719 0.263767 20.016 0.254125C19.5543 0.174389 19.4873 0.165124 18.8688 0.0954868C18.0224 0.000196576 16.8531 -0.0266863 15.9349 0.0280515ZM17.6201 0.850111C18.2372 0.876517 18.6208 0.906813 19.1023 0.967225C19.4349 1.00893 19.9675 1.09464 20.2089 1.14529C20.7932 1.2679 20.8758 1.28738 21.4271 1.43259C21.6355 1.48744 22.19 1.6634 22.4525 1.75794C22.7272 1.8569 22.9581 1.94257 23.0007 1.96135C23.023 1.97119 23.2048 2.04684 23.4046 2.12946C23.9257 2.34494 24.4121 2.58186 25.0717 2.94158C25.1492 2.98385 25.3896 3.12767 25.7417 3.34246C26.3115 3.68999 27.1741 4.33375 27.7924 4.87291C28.3607 5.36841 29.2638 6.31381 29.7008 6.87072C29.7779 6.96892 29.8837 7.10284 29.9361 7.16831C30.2154 7.51773 30.7965 8.39072 31.0519 8.84477C31.1225 8.97025 31.2108 9.12649 31.2481 9.19196C31.3127 9.30517 31.701 10.0726 31.701 10.0869C31.701 10.0906 31.7284 10.1521 31.7619 10.2236C31.7954 10.2951 31.8228 10.3575 31.8228 10.3624C31.8228 10.3673 31.8447 10.4184 31.8715 10.476C31.9504 10.6459 32.0169 10.806 32.0961 11.0172C32.137 11.1263 32.1878 11.2603 32.209 11.3148C32.2419 11.3994 32.4374 11.9835 32.4945 12.1679C32.5699 12.4116 32.7262 13.0126 32.7755 13.2492C32.7995 13.3638 32.8272 13.4932 32.8373 13.5369C32.8563 13.6194 32.8813 13.7566 32.9203 13.9932C32.9329 14.0696 32.9509 14.1678 32.9604 14.2114C32.9842 14.3212 33.0737 15.099 33.1053 15.4712C33.1399 15.8785 33.1401 17.3012 33.1055 17.733C33.0772 18.0871 32.9908 18.8323 32.9594 18.9928C32.9487 19.0473 32.9208 19.2081 32.8972 19.3499C32.8736 19.4918 32.8372 19.6837 32.8162 19.7765C32.7953 19.8692 32.7675 19.9942 32.7546 20.0542C32.7288 20.1743 32.6389 20.5188 32.5138 20.9768C32.4861 21.0781 32.2905 21.6776 32.2463 21.7965C32.1132 22.1548 31.9379 22.6064 31.9253 22.6235C31.9172 22.6344 31.8893 22.6969 31.8632 22.7623C31.8371 22.8278 31.7899 22.9374 31.7584 23.0059C31.7268 23.0743 31.701 23.134 31.701 23.1385C31.701 23.1661 31.3131 23.9152 31.1356 24.2305C30.5533 25.2647 29.9457 26.105 29.0531 27.1106C28.8052 27.3898 27.9091 28.2447 27.5383 28.5556C26.7538 29.2134 25.7414 29.9132 24.9905 30.3166C24.9012 30.3646 24.7641 30.4383 24.6859 30.4804C24.4123 30.6278 23.7348 30.9497 23.4677 31.0591C23.4007 31.0866 23.3054 31.127 23.2558 31.1489C22.8624 31.3227 21.8267 31.6769 21.3459 31.8021C21.2175 31.8355 21.0485 31.8799 20.9703 31.9008C20.806 31.9446 20.2262 32.0723 20.0769 32.0975C19.4063 32.211 19.048 32.2614 18.6049 32.3046C17.2731 32.4346 15.6548 32.3872 14.4426 32.1829C14.3476 32.1669 14.2197 32.1459 14.1583 32.1363C14.0969 32.1267 13.9964 32.1101 13.935 32.0995C13.7737 32.0718 13.1979 31.9451 13.0314 31.9008C12.9533 31.88 12.7979 31.8394 12.6863 31.8105C12.5746 31.7817 12.3553 31.7184 12.199 31.6698C12.0426 31.6213 11.8827 31.5717 11.8437 31.5596C11.7182 31.5207 11.0649 31.2819 10.9759 31.2424C10.9285 31.2213 10.885 31.2041 10.8792 31.2041C10.8734 31.2041 10.8299 31.1867 10.7826 31.1655C10.7352 31.1442 10.5823 31.0783 10.4427 31.0189C9.04875 30.426 7.67975 29.578 6.45317 28.5477C6.14636 28.29 5.20143 27.3922 4.98925 27.1568C4.36216 26.4612 3.79217 25.7251 3.36857 25.0637C3.29168 24.9437 3.19931 24.8005 3.16333 24.7455C3.04518 24.565 2.65541 23.8599 2.49476 23.5361C2.28094 23.1051 1.95397 22.3579 1.87401 22.1175C1.86493 22.0903 1.82426 21.9787 1.78362 21.8696C1.68392 21.6018 1.51619 21.083 1.44687 20.828C1.41575 20.7134 1.3669 20.5348 1.33835 20.4312C1.15348 19.76 0.969507 18.6448 0.896494 17.7528C0.861165 17.3212 0.860982 15.8646 0.896189 15.4514C0.954177 14.7711 1.07413 13.9316 1.18534 13.4277C1.20822 13.3241 1.23677 13.1946 1.24879 13.1401C1.26846 13.0508 1.30893 12.8948 1.4314 12.4358C1.49461 12.199 1.49847 12.1862 1.6207 11.8108C1.68465 11.6144 1.75818 11.4001 1.78406 11.3347C1.80995 11.2692 1.86465 11.1263 1.90558 11.0172C1.9778 10.8248 2.04343 10.6651 2.1176 10.5014C2.13737 10.4577 2.19041 10.3372 2.23548 10.2335C2.42567 9.796 2.94929 8.80554 3.16333 8.47853C3.19931 8.42353 3.29139 8.28033 3.36792 8.1603C4.00906 7.15472 4.86586 6.13534 5.85398 5.20251C6.17172 4.90255 6.19308 4.88371 6.58779 4.55544C7.28971 3.97165 8.21944 3.33115 8.93003 2.94179C9.56281 2.59507 10.077 2.34454 10.5972 2.12946C10.797 2.04684 10.9787 1.97119 11.001 1.96135C11.0234 1.95149 11.1193 1.91485 11.2142 1.87993C12.1935 1.51968 12.7987 1.34821 13.8334 1.13789C13.9619 1.11178 14.1903 1.07176 14.341 1.04894C14.4918 1.02613 14.67 0.999187 14.737 0.989088C15.5566 0.865467 16.6955 0.81057 17.6201 0.850111ZM19.417 4.84766C19.2886 4.86274 19.1379 4.88392 19.082 4.89476C18.8284 4.94396 18.4302 5.08095 18.2115 5.19428C17.865 5.37379 17.1905 5.78376 16.6456 6.14599C15.5818 6.8531 15.335 7.0008 14.9096 7.18488C14.6623 7.29185 14.3948 7.32647 14.2171 7.27447C14.1743 7.26193 14.0864 7.20738 14.0219 7.15325C13.812 6.97722 13.5764 6.89855 13.3815 6.9394C13.1583 6.98618 13.1023 7.02935 12.4939 7.62415L11.9158 8.18922L11.6705 7.95224C11.3752 7.66694 11.2695 7.60895 11.0413 7.60699C10.7595 7.60459 10.7933 7.57727 9.43475 8.90826C8.7743 9.55533 8.20547 10.1173 8.17066 10.157C8.04106 10.305 7.98748 10.5026 8.02425 10.6969C8.05836 10.8772 8.10143 10.943 8.3454 11.1875C8.47153 11.3139 8.57471 11.4252 8.57471 11.435C8.57471 11.4448 8.31996 11.703 8.0086 12.0087C7.46386 12.5437 7.41456 12.6015 7.35848 12.771C7.30474 12.9335 7.35585 13.2075 7.4621 13.3266C7.48738 13.355 7.61896 13.4897 7.75453 13.6261C7.8901 13.7625 8.01589 13.9027 8.03406 13.9376C8.0811 14.028 8.07682 14.2283 8.02549 14.3388C7.97364 14.4505 7.44179 14.9721 7.32602 15.0247C7.28135 15.045 7.19904 15.0655 7.14312 15.0701C6.97328 15.0842 6.8837 15.0479 6.72092 14.8989C6.54572 14.7386 6.50482 14.7132 6.36862 14.6804C6.27973 14.6589 6.24792 14.6598 6.15704 14.6862C6.09822 14.7032 6.02652 14.732 5.99771 14.7502C5.96892 14.7683 5.67547 15.0474 5.34563 15.3703C4.83551 15.8696 4.74223 15.9699 4.72128 16.0413C4.68776 16.1556 4.69036 16.2589 4.72964 16.3754C4.7599 16.465 4.94974 16.6563 7.01892 18.6815C8.25988 19.8962 9.31632 20.9198 9.36657 20.9562C9.47252 21.033 9.59456 21.0575 9.7677 21.0368L9.88432 21.0228L10.5204 20.4046C10.8702 20.0646 11.1714 19.7596 11.1896 19.7269C11.2127 19.6856 11.2227 19.6187 11.2224 19.5086C11.2219 19.3222 11.2067 19.2918 11.0186 19.1019C10.8754 18.9574 10.8285 18.8567 10.8285 18.6943C10.8285 18.5157 10.8775 18.4407 11.1951 18.1335C11.5272 17.8123 11.5935 17.7726 11.7978 17.7727C11.9747 17.7729 12.0101 17.7945 12.3503 18.1099C12.6357 18.3745 12.7201 18.4291 12.9045 18.4684C13.029 18.4949 13.1723 18.4762 13.3258 18.4134C13.3709 18.395 13.605 18.1778 13.9654 17.8201C14.2781 17.5097 14.5431 17.256 14.5543 17.2563C14.5819 17.257 18.0973 20.6937 18.0973 20.72C18.0973 20.7314 18.0653 20.7711 18.0262 20.8081C17.9871 20.8451 17.9552 20.891 17.9552 20.91C17.9552 20.9291 17.946 20.9502 17.9349 20.9569C17.9098 20.9721 17.9079 21.2125 17.9325 21.2598C17.9424 21.2787 17.9606 21.3187 17.9731 21.3488C18.0886 21.6266 18.3165 21.9378 18.643 22.2631C18.8862 22.5055 19.4119 22.9805 19.7006 23.2188C19.8063 23.306 19.9479 23.4268 20.0153 23.4872C20.0827 23.5476 20.179 23.6317 20.2292 23.6742C20.2795 23.7166 20.4485 23.8688 20.6048 24.0125C20.7612 24.1561 20.9338 24.313 20.9885 24.3612C21.2995 24.6352 22.0853 25.5499 22.4016 26.0061C23.0705 26.9709 23.5371 27.4132 23.9207 27.4462C24.0635 27.4585 24.3299 27.4221 24.4423 27.3749C24.4646 27.3655 24.5406 27.3386 24.6112 27.3151C24.6818 27.2916 24.8097 27.2317 24.8955 27.182C25.0465 27.0945 25.1022 27.0629 25.2562 26.9776C25.4181 26.8881 25.92 26.5301 26.1681 26.3272C26.4626 26.0864 27.1846 25.3636 27.4202 25.0737C27.6853 24.7474 27.8404 24.506 28.0449 24.1015C28.1028 23.9869 28.1574 23.8798 28.1662 23.8634C28.2482 23.7103 28.2452 23.3739 28.1599 23.1696C28.0006 22.7879 27.3952 21.8814 26.8808 21.2545C26.5498 20.8511 26.2948 20.5826 25.56 19.8643C24.8289 19.1493 24.5184 18.8754 24.0565 18.5377C23.6062 18.2085 23.0172 17.8433 22.5845 17.6252C22.5007 17.583 22.4094 17.5337 22.3814 17.5158C22.3301 17.4828 22.1616 17.4028 22.087 17.3761C21.8263 17.2825 21.6656 17.2955 21.4886 17.4245L21.418 17.4759L19.6561 15.7545C18.6871 14.8076 17.8942 14.0177 17.8942 13.9992C17.8942 13.9806 17.9076 13.9581 17.9239 13.9492C17.9402 13.9403 18.116 13.7769 18.3147 13.5861C18.5134 13.3952 18.7559 13.1653 18.8537 13.075C19.0558 12.8884 19.1189 12.8044 19.1626 12.6636C19.2321 12.4395 19.1844 12.245 19.002 12.0092C18.9513 11.9437 18.9098 11.8837 18.9097 11.8758C18.9096 11.8679 18.8857 11.8099 18.8566 11.7469C18.8275 11.6838 18.7945 11.6099 18.7832 11.5827C18.7718 11.5554 18.7545 11.5176 18.7446 11.4986C18.7348 11.4797 18.7267 11.4467 18.7267 11.4254C18.7267 11.4041 18.7176 11.3811 18.7064 11.3743C18.6952 11.3676 18.6861 11.3446 18.6861 11.3233C18.6861 11.302 18.6777 11.269 18.6675 11.2501C18.6511 11.2198 18.6317 11.1577 18.5636 10.918C18.5453 10.8533 18.5201 10.753 18.4851 10.6053C18.4728 10.5533 18.4628 10.4873 18.4628 10.4588C18.4628 10.4302 18.4542 10.3745 18.4438 10.335C18.4333 10.2956 18.4146 10.1191 18.4021 9.94292C18.3469 9.16294 18.5411 8.43657 18.9609 7.85278C19.0856 7.6793 19.3787 7.36302 19.5389 7.2289C19.8 7.01029 20.1971 6.79302 20.5338 6.68448C20.8093 6.59564 20.8338 6.58913 20.9805 6.56582C21.053 6.55427 21.1764 6.53471 21.2546 6.52235C21.4193 6.49628 22.1217 6.50848 22.3104 6.54068C22.5841 6.58742 22.6593 6.60153 22.7368 6.62069C22.7814 6.63175 22.8454 6.64633 22.8789 6.65309C22.9124 6.65986 22.9581 6.6724 22.9804 6.68099C23.0027 6.68956 23.0576 6.70743 23.1022 6.72069C23.1717 6.7413 23.2472 6.7688 23.488 6.86117C23.7817 6.97386 24.0925 7.15264 24.2697 7.31088C24.4151 7.44069 24.4886 7.47583 24.6149 7.47583C24.7346 7.47583 24.8023 7.44609 24.8928 7.35352C25.0074 7.23638 25.0329 7.08078 24.9622 6.92883C24.9258 6.85048 24.6336 6.59157 24.2994 6.34167C24.1742 6.24795 23.6513 5.90849 23.6323 5.90849C23.6265 5.90849 23.5734 5.88051 23.5143 5.84633C23.3985 5.77937 22.9167 5.54038 22.7672 5.47578C22.3029 5.27507 21.8313 5.11613 21.3498 4.99806C21.0521 4.92505 20.9208 4.90103 20.5642 4.85432C20.3148 4.82167 19.6703 4.81792 19.417 4.84766Z" fill="#CADAE4"/>
</svg>
