<svg width="20" height="22" viewBox="0 0 20 22" fill="none" xmlns="http://www.w3.org/2000/svg">
<path d="M3.97106 0.0759572C2.00467 0.496935 0.4928 2.00863 0.100479 3.95565C6.10498e-06 4.42925 6.10256e-06 4.55842 6.10256e-06 10.9927C6.10256e-06 18.0728 -0.00477831 17.9197 0.25358 18.6803C0.511937 19.4266 0.885121 20.0246 1.45447 20.5939C2.08601 21.2205 2.82759 21.6463 3.66964 21.8664C4.12895 21.986 4.85139 22.0434 4.89924 21.962C4.92316 21.9238 6.32977 21.9094 10.2578 21.9094C16.023 21.9094 15.9082 21.9142 16.688 21.6511C18.1042 21.1679 19.2572 20.0102 19.7405 18.5942C19.9414 18.001 20.0754 17.0299 19.951 17.0299C19.8792 17.0299 19.884 8.38549 19.9558 8.36157C20.0467 8.33287 19.9605 8.00757 19.8218 7.84492C19.6448 7.63443 19.4438 7.54353 19.152 7.54832C18.8649 7.54832 18.6544 7.65356 18.4965 7.85927C18.396 7.99322 18.396 8.00757 18.3721 12.8584L18.3482 17.7236L18.2142 18.1063C18.0085 18.6851 17.8219 18.9721 17.3722 19.4218C17.0421 19.7519 16.8794 19.8715 16.554 20.0294C15.7933 20.3977 16.1761 20.3786 9.98984 20.3786C4.64566 20.3786 4.45429 20.3738 4.09546 20.2829C3.05246 20.015 2.16256 19.1826 1.78459 18.1063L1.65063 17.7236V11.0262V4.32879L1.76067 3.97C1.93769 3.40551 2.16734 3.03715 2.62664 2.58269C2.95198 2.25739 3.12422 2.13301 3.44478 1.97036C4.16722 1.61635 4.04761 1.62592 8.01388 1.62592C11.3534 1.62592 11.5639 1.62114 11.7457 1.53503C12.2146 1.31976 12.3773 0.846156 12.1428 0.382123C11.9323 -0.0245035 12.1955 -0.000584302 7.98996 0.00419954C5.00928 0.00419954 4.21985 0.0185511 3.97106 0.0759572Z" fill="#CAD9E4"/>
<path d="M15.712 0.0907029C15.6307 0.138541 15.5111 0.253354 15.4489 0.344247C15.3341 0.502113 15.3341 0.521249 15.3197 1.7794L15.3054 3.06147H14.0614C13.1093 3.06147 12.784 3.07582 12.6596 3.12844C12.2385 3.30545 12.1094 3.97997 12.4251 4.35789C12.6835 4.65927 12.8079 4.68798 14.1284 4.68798H15.3101V5.88394C15.3101 7.16601 15.3293 7.2856 15.5541 7.49609C15.9656 7.87401 16.5302 7.77834 16.8268 7.28082C16.932 7.1086 16.9368 7.06076 16.9368 5.8935V4.68798H18.1234C19.1664 4.68798 19.329 4.67362 19.4965 4.59708C20.0993 4.3244 20.1759 3.57812 19.6448 3.18585C19.5204 3.09017 19.4391 3.08539 18.2238 3.07104L16.9368 3.05669V1.82724C16.9368 0.645629 16.932 0.583439 16.8316 0.382517C16.7598 0.243786 16.6641 0.138541 16.5541 0.085919C16.3244 -0.0288932 15.9034 -0.0288932 15.712 0.0907029Z" fill="#CAD9E4"/>
<path d="M5.61218 5.16126C5.3299 5.29043 5.11938 5.59659 5.11938 5.87406C5.11938 6.16109 5.29162 6.44812 5.54041 6.59163L5.73657 6.70166L8.03309 6.68731C10.2674 6.67296 10.3296 6.66817 10.4588 6.5725C10.9898 6.18022 10.9133 5.43394 10.3105 5.16126C10.1334 5.07994 9.95163 5.07037 7.96611 5.07037C5.95187 5.07037 5.79877 5.07994 5.61218 5.16126Z" fill="#CAD9E4"/>
<path d="M5.5739 10.266C5.24856 10.4334 5.11938 10.6439 5.11938 11.0122C5.11938 11.3615 5.23421 11.5767 5.50214 11.7059L5.71265 11.8159H9.99948H14.2815L14.4729 11.7059C14.7552 11.548 14.8796 11.3327 14.8796 11.0074C14.8796 10.663 14.7647 10.4382 14.5207 10.2994C14.3246 10.1894 14.0662 10.1511 14.0662 10.2373C14.0662 10.2707 12.6787 10.2851 9.99948 10.2851C7.32021 10.2851 5.93273 10.2707 5.93273 10.2373C5.93273 10.1655 5.73657 10.1798 5.5739 10.266Z" fill="#CAD9E4"/>
<path d="M5.49735 15.4176C5.23899 15.5898 5.11938 15.8099 5.11938 16.1065C5.11938 16.4413 5.22464 16.6662 5.44951 16.8001L5.62175 16.9102H9.98034H14.3341L14.5303 16.781C14.7695 16.6231 14.8796 16.3983 14.8796 16.0634C14.8796 15.762 14.7647 15.542 14.5351 15.4032C14.3724 15.3028 14.0662 15.2741 14.0662 15.3554C14.0662 15.3889 12.6787 15.4032 9.99948 15.4032C7.32021 15.4032 5.93273 15.3889 5.93273 15.3554C5.93273 15.2693 5.66002 15.3076 5.49735 15.4176Z" fill="#CAD9E4"/>
</svg>
