<svg width="23" height="24" viewBox="0 0 23 24" fill="none" xmlns="http://www.w3.org/2000/svg">
<path fill-rule="evenodd" clip-rule="evenodd" d="M2.93799 0.0695527C2.54232 0.181219 1.97633 0.749178 1.8617 1.14968C1.81001 1.33003 1.76755 1.91286 1.76728 2.44472L1.76675 3.4118H1.23898C0.604904 3.4118 0.289286 3.53654 0.119952 3.85408C-0.0399841 4.15392 -0.0399841 4.38895 0.119952 4.68879C0.289286 5.00634 0.604904 5.13107 1.23898 5.13107H1.76675V8.13978V11.1485H1.23038C0.935415 11.1485 0.584158 11.2036 0.449755 11.271C-0.140255 11.5669 -0.140255 12.4494 0.449755 12.7453C0.584158 12.8127 0.935415 12.8678 1.23038 12.8678H1.76675V15.8765V18.8852H1.23898C0.604904 18.8852 0.289286 19.0099 0.119952 19.3275C-0.0399841 19.6273 -0.0399841 19.8623 0.119952 20.1622C0.288754 20.4786 0.604638 20.6045 1.23029 20.6045H1.74937L1.78022 21.7435C1.80789 22.7632 1.83315 22.9169 2.02146 23.2106C2.13716 23.3911 2.39364 23.6426 2.59125 23.7694L2.95067 24H12.3991H21.8475L22.1859 23.796C22.372 23.6838 22.6314 23.4351 22.7621 23.2435L23 22.895V12.0081V1.12123L22.7621 0.772732C22.6314 0.58112 22.372 0.332429 22.1859 0.220246L21.8475 0.0162556L12.5385 0.00172792C6.82221 -0.00721225 3.11708 0.0190063 2.93799 0.0695527ZM21.2712 12.0081V22.3237H12.4055H3.53988V21.4641V20.6045H4.06765C4.70172 20.6045 5.01734 20.4797 5.18668 20.1622C5.34661 19.8623 5.34661 19.6273 5.18668 19.3275C5.01734 19.0099 4.70172 18.8852 4.06765 18.8852H3.53988V15.8765V12.8678H4.07625C4.69543 12.8678 5.05671 12.7175 5.20707 12.3974C5.34103 12.1123 5.34103 11.9039 5.20707 11.6189C5.05671 11.2988 4.69543 11.1485 4.07625 11.1485H3.53988V8.13978V5.13107H4.07625C4.69543 5.13107 5.05671 4.9808 5.20707 4.66068C5.34103 4.37562 5.34103 4.16725 5.20707 3.88219C5.05671 3.56207 4.69543 3.4118 4.07625 3.4118H3.53988V2.55217V1.69254H12.4055H21.2712V12.0081ZM11.519 4.81378C10.4469 5.11491 9.72838 5.69611 9.23748 6.65915C8.92577 7.27069 8.9036 7.36577 8.9036 8.09233C8.9036 8.65118 8.95219 8.99744 9.07595 9.32083C9.41914 10.2178 10.2624 11.0355 11.1875 11.3682C11.8237 11.5971 12.9874 11.5971 13.6236 11.3682C14.5486 11.0355 15.3919 10.2178 15.7351 9.32083C15.9711 8.70396 15.9711 7.57561 15.7351 6.95873C15.3989 6.08002 14.5597 5.25434 13.6721 4.92897C13.1205 4.72678 12.0356 4.66876 11.519 4.81378ZM13.3794 6.71038C13.908 7.04951 14.1343 7.47804 14.1343 8.13978C14.1343 8.81012 13.9076 9.23031 13.3542 9.58543C12.8595 9.9028 11.9937 9.91518 11.4909 9.61207C10.8197 9.20753 10.5044 8.40429 10.7166 7.64008C10.8386 7.20072 11.3812 6.63792 11.8036 6.51258C12.2685 6.37461 12.9992 6.46634 13.3794 6.71038ZM8.88871 12.595C7.99798 12.8975 7.37002 13.5746 7.17046 14.4476C7.10795 14.7212 7.08136 15.5087 7.10015 16.5277C7.12994 18.1401 7.13446 18.1735 7.36834 18.5158C7.49911 18.7073 7.75843 18.9559 7.9446 19.068L8.28301 19.272H12.4055H16.5281L16.8665 19.068C17.0526 18.9559 17.312 18.7072 17.4427 18.5155L17.6806 18.1671V16.2696V14.3721L17.4333 13.8837C17.153 13.3303 16.7235 12.9266 16.1336 12.662C15.7501 12.4899 15.5723 12.4799 12.5385 12.4602C9.65248 12.4414 9.303 12.4544 8.88871 12.595ZM15.4957 14.2797C15.8932 14.4791 15.9518 14.7288 15.9518 16.2244V17.5957H12.4055H8.85928L8.86238 16.1988C8.86575 14.7062 8.91637 14.49 9.31231 14.2772C9.63298 14.1049 15.1514 14.1071 15.4957 14.2797Z" fill="#CADAE4"/>
</svg>
