<svg width="34" height="34" viewBox="0 0 34 34" fill="none" xmlns="http://www.w3.org/2000/svg">
<path fill-rule="evenodd" clip-rule="evenodd" d="M16.9619 6.45925C16.6799 6.53967 11.9793 7.83217 9.12774 8.61335C8.11174 8.89164 7.59804 9.05217 7.53915 9.10971C7.45698 9.19004 7.4521 9.25209 7.4521 10.2172C7.4521 11.2394 7.45215 11.2397 7.55486 11.3226C7.65531 11.4038 7.87049 11.4056 17.2665 11.4056C26.6626 11.4056 26.8777 11.4038 26.9782 11.3226C27.0809 11.2397 27.0809 11.2394 27.0809 10.2172C27.0809 9.25209 27.0761 9.19004 26.9939 9.10971C26.9103 9.02795 26.6415 8.95006 22.8375 7.90556C17.7812 6.51719 17.2485 6.37138 17.2465 6.37507C17.2456 6.37698 17.1175 6.41486 16.9619 6.45925ZM17.7469 7.73341C18.2361 7.93832 18.5443 8.39758 18.5474 8.92627C18.5516 9.64101 17.9852 10.2076 17.2665 10.2076C16.5486 10.2076 15.9877 9.64643 15.9868 8.92719C15.9862 8.42136 16.3012 7.93199 16.7443 7.7505C17.0647 7.61927 17.4585 7.61255 17.7469 7.73341ZM16.9563 8.44093C16.7114 8.59247 16.6213 8.97987 16.7719 9.23404C16.9801 9.58555 17.5529 9.58555 17.7611 9.23404C17.9138 8.97627 17.8199 8.58631 17.5694 8.43885C17.4159 8.34837 17.1042 8.34941 16.9563 8.44093ZM7.44618 12.1216C7.43713 12.1455 7.43478 15.2798 7.44092 19.0867L7.4521 26.0083L8.81219 26.0198L10.1723 26.0312V19.0873V12.1433L9.83498 12.1379C9.64945 12.1349 9.03978 12.1203 8.48016 12.1053C7.81665 12.0877 7.45689 12.0933 7.44618 12.1216ZM26.0364 12.1051C25.4858 12.1198 24.8836 12.1345 24.6981 12.1376L24.3608 12.1433V19.0873V26.0312L25.7209 26.0198L27.0809 26.0083L27.092 19.0673C27.098 15.2497 27.0882 12.1154 27.0702 12.1022C27.0522 12.089 26.587 12.0903 26.0364 12.1051ZM10.8687 12.9895V13.8358H17.2665H23.6644V12.9895V12.1433H17.2665H10.8687V12.9895ZM15.2209 18.1754V20.215H17.2665H19.3121V18.1754V16.1357H18.9422H18.5722V16.7491C18.5722 17.4556 18.5275 17.652 18.3265 17.8279C18.1229 18.0061 17.9344 18.0447 17.2665 18.0447C16.5987 18.0447 16.4101 18.0061 16.2065 17.8279C16.0055 17.652 15.9608 17.4556 15.9608 16.7491V16.1357H15.5909H15.2209V18.1754ZM16.7007 16.7216V17.3074H17.2665H17.8323V16.7216V16.1357H17.2665H16.7007V16.7216ZM12.8376 22.9815L12.8489 25.0102L14.8836 25.0215L16.9183 25.0328V22.9927V20.9527H16.5522H16.1861L16.1714 21.6395C16.1575 22.2882 16.1506 22.3352 16.0479 22.4864C15.8544 22.771 15.6873 22.8187 14.8836 22.8187C14.4949 22.8187 14.1274 22.7982 14.0595 22.7727C13.8773 22.7042 13.659 22.4744 13.6104 22.2999C13.5868 22.2153 13.5675 21.8776 13.5673 21.5494L13.5671 20.9527H13.1967H12.8263L12.8376 22.9815ZM14.304 20.9852C14.3024 21.0032 14.3008 21.2619 14.3005 21.5602L14.3 22.1027H14.8801H15.4603L15.4725 21.5277L15.4846 20.9527H14.8958C14.5719 20.9527 14.3057 20.9673 14.304 20.9852ZM17.6252 22.9815L17.6365 25.0102H19.6603H21.6841L21.6954 22.9815L21.7067 20.9527H21.3364H20.966L20.9657 21.5494C20.9656 21.8776 20.9462 22.2153 20.9226 22.2999C20.874 22.4744 20.6557 22.7042 20.4735 22.7727C20.4059 22.7981 20.0414 22.8187 19.6603 22.8187C19.2792 22.8187 18.9147 22.7981 18.8471 22.7727C18.6648 22.7042 18.4466 22.4744 18.3979 22.2999C18.3744 22.2153 18.355 21.8776 18.3549 21.5494L18.3546 20.9527H17.9842H17.6138L17.6252 22.9815ZM19.0606 21.5277L19.0727 22.1027H19.6603H20.2478L20.26 21.5277L20.2721 20.9527H19.6603H19.0484L19.0606 21.5277Z" fill="#CADAE4"/>
<path fill-rule="evenodd" clip-rule="evenodd" d="M15.6985 0.0465704C8.12759 0.592924 1.82347 6.17453 0.265836 13.7106C-0.0192195 15.0894 -0.0890964 17.8882 0.125109 19.3413C0.551767 22.2351 1.61754 24.8438 3.30636 27.1279C4.13165 28.244 5.96305 30.0417 7.09121 30.8432C8.19824 31.6295 10.3873 32.7292 11.6653 33.141C15.2198 34.2863 18.8162 34.2863 22.3707 33.141C23.6453 32.7304 25.8443 31.6272 26.8962 30.8709C30.4983 28.2808 32.8954 24.5647 33.7802 20.1988C33.967 19.2775 33.9995 18.8088 34 17.03C34.0008 14.5909 33.8723 13.7143 33.2244 11.7384C30.7626 4.22932 23.6342 -0.526096 15.6985 0.0465704ZM18.5752 0.914114C20.4879 1.1118 22.31 1.61728 24.0154 2.42326C26.9636 3.81657 29.7058 6.4261 31.3045 9.35953C32.7298 11.9751 33.4182 15.2193 33.1753 18.1765C32.6993 23.9712 29.3954 28.8788 24.2376 31.4526C16.8998 35.1143 7.92233 32.6741 3.41896 25.7937C0.229341 20.9206 -0.0423824 14.4338 2.73051 9.35953C3.93535 7.1547 5.94953 4.94171 7.9672 3.60578C11.184 1.476 14.897 0.53389 18.5752 0.914114Z" fill="#CADAE4"/>
</svg>
